<?xml version="1.0" encoding="UTF-8" standalone="no"?>
<!DOCTYPE svg PUBLIC "-//W3C//DTD SVG 1.1//EN"
 "http://www.w3.org/Graphics/SVG/1.1/DTD/svg11.dtd">
<!-- Generated by graphviz version 6.0.2 (20221011.1828)
 -->
<!-- Title: classes Pages: 1 -->
<svg width="510pt" height="500pt"
 viewBox="0.00 0.00 509.50 500.00" xmlns="http://www.w3.org/2000/svg" xmlns:xlink="http://www.w3.org/1999/xlink">
<g id="graph0" class="graph" transform="scale(1 1) rotate(0) translate(4 496)">
<title>classes</title>
<polygon fill="white" stroke="none" points="-4,4 -4,-496 505.5,-496 505.5,4 -4,4"/>
<!-- pattern_feedback_tool.settings._Settings.Config -->
<g id="node1" class="node">
<title>pattern_feedback_tool.settings._Settings.Config</title>
<polygon fill="none" stroke="black" points="0,-60.5 0,-129.5 73,-129.5 73,-60.5 0,-60.5"/>
<text text-anchor="middle" x="36.5" y="-114.3" font-family="Times,serif" font-size="14.00">Config</text>
<polyline fill="none" stroke="black" points="0,-106.5 73,-106.5"/>
<text text-anchor="start" x="8" y="-91.3" font-family="Times,serif" font-size="14.00">prefix : str</text>
<polyline fill="none" stroke="black" points="0,-83.5 73,-83.5"/>
<text text-anchor="middle" x="36.5" y="-68.3" font-family="Times,serif" font-size="14.00"> </text>
</g>
<!-- pattern_feedback_tool.lint_parsers.LintLog -->
<g id="node2" class="node">
<title>pattern_feedback_tool.lint_parsers.LintLog</title>
<polygon fill="none" stroke="black" points="12,-241.5 12,-491.5 225,-491.5 225,-241.5 12,-241.5"/>
<text text-anchor="middle" x="118.5" y="-476.3" font-family="Times,serif" font-size="14.00">LintLog</text>
<polyline fill="none" stroke="black" points="12,-468.5 225,-468.5"/>
<text text-anchor="start" x="20" y="-453.3" font-family="Times,serif" font-size="14.00">column : str</text>
<text text-anchor="start" x="20" y="-438.3" font-family="Times,serif" font-size="14.00">end_column : Optional[str | None]</text>
<text text-anchor="start" x="20" y="-423.3" font-family="Times,serif" font-size="14.00">end_line : Optional[str | None]</text>
<text text-anchor="start" x="20" y="-408.3" font-family="Times,serif" font-size="14.00">file_path : str</text>
<text text-anchor="start" x="20" y="-393.3" font-family="Times,serif" font-size="14.00">kind : Optional[str | None]</text>
<text text-anchor="start" x="20" y="-378.3" font-family="Times,serif" font-size="14.00">line : str</text>
<text text-anchor="start" x="20" y="-363.3" font-family="Times,serif" font-size="14.00">message : str</text>
<text text-anchor="start" x="20" y="-348.3" font-family="Times,serif" font-size="14.00">message_id : str</text>
<text text-anchor="start" x="20" y="-333.3" font-family="Times,serif" font-size="14.00">obj : Optional[str | None]</text>
<text text-anchor="start" x="20" y="-318.3" font-family="Times,serif" font-size="14.00">source</text>
<polyline fill="none" stroke="black" points="12,-310.5 225,-310.5"/>
<text text-anchor="middle" x="118.5" y="-295.3" font-family="Times,serif" font-size="14.00">from_pylint(pylint_data: dict[str, str</text>
<polyline fill="none" stroke="black" points="12,-287.5 225,-287.5"/>
<text text-anchor="middle" x="118.5" y="-272.3" font-family="Times,serif" font-size="14.00">int</text>
<polyline fill="none" stroke="black" points="12,-264.5 225,-264.5"/>
<text text-anchor="start" x="20" y="-249.3" font-family="Times,serif" font-size="14.00">None]): &#39;LintLog&#39;</text>
</g>
<!-- pattern_feedback_tool.lint_parsers.Linter -->
<g id="node3" class="node">
<title>pattern_feedback_tool.lint_parsers.Linter</title>
<polygon fill="none" stroke="black" points="91.5,-60.5 91.5,-129.5 145.5,-129.5 145.5,-60.5 91.5,-60.5"/>
<text text-anchor="middle" x="118.5" y="-114.3" font-family="Times,serif" font-size="14.00">Linter</text>
<polyline fill="none" stroke="black" points="91.5,-106.5 145.5,-106.5"/>
<text text-anchor="start" x="99.5" y="-91.3" font-family="Times,serif" font-size="14.00">name</text>
<polyline fill="none" stroke="black" points="91.5,-83.5 145.5,-83.5"/>
<text text-anchor="middle" x="118.5" y="-68.3" font-family="Times,serif" font-size="14.00"> </text>
</g>
<!-- pattern_feedback_tool.lint_parsers.Linter&#45;&gt;pattern_feedback_tool.lint_parsers.LintLog -->
<g id="edge1" class="edge">
<title>pattern_feedback_tool.lint_parsers.Linter&#45;&gt;pattern_feedback_tool.lint_parsers.LintLog</title>
<path fill="none" stroke="black" d="M118.5,-129.59C118.5,-155.12 118.5,-192.06 118.5,-229.16"/>
<polygon fill="black" stroke="black" points="118.5,-229.2 122.5,-235.2 118.5,-241.2 114.5,-235.2 118.5,-229.2"/>
<text text-anchor="middle" x="136.5" y="-211.8" font-family="Times,serif" font-size="14.00" fill="green">source</text>
</g>
<!-- pattern_feedback_tool.linters._HarvesterProtocol -->
<g id="node4" class="node">
<title>pattern_feedback_tool.linters._HarvesterProtocol</title>
<polygon fill="none" stroke="black" points="163.5,-60 163.5,-130 285.5,-130 285.5,-60 163.5,-60"/>
<text text-anchor="middle" x="224.5" y="-114.8" font-family="Times,serif" font-size="14.00">_HarvesterProtocol</text>
<polyline fill="none" stroke="black" points="163.5,-107 285.5,-107"/>
<polyline fill="none" stroke="black" points="163.5,-83 285.5,-83"/>
<text text-anchor="start" x="171.5" y="-67.8" font-family="Times,serif" font-size="14.00">as_md(): str</text>
</g>
<!-- pattern_feedback_tool.settings._Settings -->
<g id="node5" class="node">
<title>pattern_feedback_tool.settings._Settings</title>
<polygon fill="none" stroke="black" points="303.5,-0.5 303.5,-189.5 501.5,-189.5 501.5,-0.5 303.5,-0.5"/>
<text text-anchor="middle" x="402.5" y="-174.3" font-family="Times,serif" font-size="14.00">_Settings</text>
<polyline fill="none" stroke="black" points="303.5,-166.5 501.5,-166.5"/>
<text text-anchor="start" x="311.5" y="-151.3" font-family="Times,serif" font-size="14.00">ACTIVE_TASK : str</text>
<text text-anchor="start" x="311.5" y="-136.3" font-family="Times,serif" font-size="14.00">ARGS_FLAKE8 : str</text>
<text text-anchor="start" x="311.5" y="-121.3" font-family="Times,serif" font-size="14.00">ARGS_MYPY : str</text>
<text text-anchor="start" x="311.5" y="-106.3" font-family="Times,serif" font-size="14.00">ARGS_PYLINT : str</text>
<text text-anchor="start" x="311.5" y="-91.3" font-family="Times,serif" font-size="14.00">ARGS_PYTEST : str</text>
<text text-anchor="start" x="311.5" y="-76.3" font-family="Times,serif" font-size="14.00">COMPLETED_TASKS : list[str]</text>
<text text-anchor="start" x="311.5" y="-61.3" font-family="Times,serif" font-size="14.00">PROJ_DIR : Path</text>
<text text-anchor="start" x="311.5" y="-46.3" font-family="Times,serif" font-size="14.00">USER_CONFIG : Path</text>
<polyline fill="none" stroke="black" points="303.5,-38.5 501.5,-38.5"/>
<text text-anchor="start" x="311.5" y="-23.3" font-family="Times,serif" font-size="14.00">next_task(): None</text>
<text text-anchor="start" x="311.5" y="-8.3" font-family="Times,serif" font-size="14.00">persist(): None</text>
</g>
</g>
</svg>
