<?xml version="1.0" encoding="UTF-8" standalone="no"?>
<!DOCTYPE svg PUBLIC "-//W3C//DTD SVG 1.1//EN"
 "http://www.w3.org/Graphics/SVG/1.1/DTD/svg11.dtd">
<!-- Generated by graphviz version 2.43.0 (0)
 -->
<!-- Title: classes Pages: 1 -->
<svg width="526pt" height="198pt"
 viewBox="0.00 0.00 526.00 198.00" xmlns="http://www.w3.org/2000/svg" xmlns:xlink="http://www.w3.org/1999/xlink">
<g id="graph0" class="graph" transform="scale(1 1) rotate(0) translate(4 194)">
<title>classes</title>
<polygon fill="white" stroke="transparent" points="-4,4 -4,-194 522,-194 522,4 -4,4"/>
<!-- pattern_feedback_tool.settings._Settings.Config -->
<g id="node1" class="node">
<title>pattern_feedback_tool.settings._Settings.Config</title>
<polygon fill="none" stroke="black" points="0,-60.5 0,-129.5 92,-129.5 92,-60.5 0,-60.5"/>
<text text-anchor="middle" x="46" y="-114.3" font-family="Times,serif" font-size="14.00">Config</text>
<polyline fill="none" stroke="black" points="0,-106.5 92,-106.5 "/>
<text text-anchor="start" x="8" y="-91.3" font-family="Times,serif" font-size="14.00">prefix : str</text>
<polyline fill="none" stroke="black" points="0,-83.5 92,-83.5 "/>
<text text-anchor="middle" x="46" y="-68.3" font-family="Times,serif" font-size="14.00"> </text>
</g>
<!-- pattern_feedback_tool.linters._HarvesterProtocol -->
<g id="node2" class="node">
<title>pattern_feedback_tool.linters._HarvesterProtocol</title>
<polygon fill="none" stroke="black" points="110.5,-60 110.5,-130 265.5,-130 265.5,-60 110.5,-60"/>
<text text-anchor="middle" x="188" y="-114.8" font-family="Times,serif" font-size="14.00">_HarvesterProtocol</text>
<polyline fill="none" stroke="black" points="110.5,-107 265.5,-107 "/>
<polyline fill="none" stroke="black" points="110.5,-83 265.5,-83 "/>
<text text-anchor="start" x="118.5" y="-67.8" font-family="Times,serif" font-size="14.00">as_md(): str</text>
</g>
<!-- pattern_feedback_tool.settings._Settings -->
<g id="node3" class="node">
<title>pattern_feedback_tool.settings._Settings</title>
<polygon fill="none" stroke="black" points="284,-0.5 284,-189.5 518,-189.5 518,-0.5 284,-0.5"/>
<text text-anchor="middle" x="401" y="-174.3" font-family="Times,serif" font-size="14.00">_Settings</text>
<polyline fill="none" stroke="black" points="284,-166.5 518,-166.5 "/>
<text text-anchor="start" x="292" y="-151.3" font-family="Times,serif" font-size="14.00">ACTIVE_TASK : str</text>
<text text-anchor="start" x="292" y="-136.3" font-family="Times,serif" font-size="14.00">ARGS_FLAKE8 : str</text>
<text text-anchor="start" x="292" y="-121.3" font-family="Times,serif" font-size="14.00">ARGS_MYPY : str</text>
<text text-anchor="start" x="292" y="-106.3" font-family="Times,serif" font-size="14.00">ARGS_PYLINT : str</text>
<text text-anchor="start" x="292" y="-91.3" font-family="Times,serif" font-size="14.00">ARGS_PYTEST : str</text>
<text text-anchor="start" x="292" y="-76.3" font-family="Times,serif" font-size="14.00">COMPLETED_TASKS : list[str]</text>
<text text-anchor="start" x="292" y="-61.3" font-family="Times,serif" font-size="14.00">PROJ_DIR : Path</text>
<text text-anchor="start" x="292" y="-46.3" font-family="Times,serif" font-size="14.00">USER_CONFIG : Path</text>
<polyline fill="none" stroke="black" points="284,-38.5 518,-38.5 "/>
<text text-anchor="start" x="292" y="-23.3" font-family="Times,serif" font-size="14.00">next_task(): None</text>
<text text-anchor="start" x="292" y="-8.3" font-family="Times,serif" font-size="14.00">persist(): None</text>
</g>
</g>
</svg>
