<?xml version="1.0" encoding="UTF-8" standalone="no"?>
<!DOCTYPE svg PUBLIC "-//W3C//DTD SVG 1.1//EN"
 "http://www.w3.org/Graphics/SVG/1.1/DTD/svg11.dtd">
<!-- Generated by graphviz version 2.43.0 (0)
 -->
<!-- Title: classes Pages: 1 -->
<svg width="604pt" height="469pt"
 viewBox="0.00 0.00 604.00 469.00" xmlns="http://www.w3.org/2000/svg" xmlns:xlink="http://www.w3.org/1999/xlink">
<g id="graph0" class="graph" transform="scale(1 1) rotate(0) translate(4 465)">
<title>classes</title>
<polygon fill="white" stroke="transparent" points="-4,4 -4,-465 600,-465 600,4 -4,4"/>
<!-- pattern_feedback_tool.settings._Settings.Config -->
<g id="node1" class="node">
<title>pattern_feedback_tool.settings._Settings.Config</title>
<polygon fill="none" stroke="black" points="0,-68 0,-137 92,-137 92,-68 0,-68"/>
<text text-anchor="middle" x="46" y="-121.8" font-family="Times,serif" font-size="14.00">Config</text>
<polyline fill="none" stroke="black" points="0,-114 92,-114 "/>
<text text-anchor="start" x="8" y="-98.8" font-family="Times,serif" font-size="14.00">prefix : str</text>
<polyline fill="none" stroke="black" points="0,-91 92,-91 "/>
<text text-anchor="middle" x="46" y="-75.8" font-family="Times,serif" font-size="14.00"> </text>
</g>
<!-- pattern_feedback_tool.lint_parsers.LintLog -->
<g id="node2" class="node">
<title>pattern_feedback_tool.lint_parsers.LintLog</title>
<polygon fill="none" stroke="black" points="11.5,-256.5 11.5,-460.5 268.5,-460.5 268.5,-256.5 11.5,-256.5"/>
<text text-anchor="middle" x="140" y="-445.3" font-family="Times,serif" font-size="14.00">LintLog</text>
<polyline fill="none" stroke="black" points="11.5,-437.5 268.5,-437.5 "/>
<text text-anchor="start" x="19.5" y="-422.3" font-family="Times,serif" font-size="14.00">column : str</text>
<text text-anchor="start" x="19.5" y="-407.3" font-family="Times,serif" font-size="14.00">end_column : Optional[str | None]</text>
<text text-anchor="start" x="19.5" y="-392.3" font-family="Times,serif" font-size="14.00">end_line : Optional[str | None]</text>
<text text-anchor="start" x="19.5" y="-377.3" font-family="Times,serif" font-size="14.00">file_path : str</text>
<text text-anchor="start" x="19.5" y="-362.3" font-family="Times,serif" font-size="14.00">kind : Optional[str | None]</text>
<text text-anchor="start" x="19.5" y="-347.3" font-family="Times,serif" font-size="14.00">line : str</text>
<text text-anchor="start" x="19.5" y="-332.3" font-family="Times,serif" font-size="14.00">message : str</text>
<text text-anchor="start" x="19.5" y="-317.3" font-family="Times,serif" font-size="14.00">message_id : str</text>
<text text-anchor="start" x="19.5" y="-302.3" font-family="Times,serif" font-size="14.00">obj : Optional[str | None]</text>
<text text-anchor="start" x="19.5" y="-287.3" font-family="Times,serif" font-size="14.00">source</text>
<polyline fill="none" stroke="black" points="11.5,-279.5 268.5,-279.5 "/>
<text text-anchor="start" x="19.5" y="-264.3" font-family="Times,serif" font-size="14.00">from_pylint(): &#39;LintLog&#39;</text>
</g>
<!-- pattern_feedback_tool.lint_parsers.Linter -->
<g id="node3" class="node">
<title>pattern_feedback_tool.lint_parsers.Linter</title>
<polygon fill="none" stroke="black" points="110,-68 110,-137 170,-137 170,-68 110,-68"/>
<text text-anchor="middle" x="140" y="-121.8" font-family="Times,serif" font-size="14.00">Linter</text>
<polyline fill="none" stroke="black" points="110,-114 170,-114 "/>
<text text-anchor="start" x="118" y="-98.8" font-family="Times,serif" font-size="14.00">name</text>
<polyline fill="none" stroke="black" points="110,-91 170,-91 "/>
<text text-anchor="middle" x="140" y="-75.8" font-family="Times,serif" font-size="14.00"> </text>
</g>
<!-- pattern_feedback_tool.lint_parsers.Linter&#45;&gt;pattern_feedback_tool.lint_parsers.LintLog -->
<g id="edge1" class="edge">
<title>pattern_feedback_tool.lint_parsers.Linter&#45;&gt;pattern_feedback_tool.lint_parsers.LintLog</title>
<path fill="none" stroke="black" d="M140,-137.23C140,-164.75 140,-205.29 140,-244.11"/>
<polygon fill="black" stroke="black" points="140,-244.36 144,-250.36 140,-256.36 136,-250.36 140,-244.36"/>
<text text-anchor="middle" x="164" y="-226.8" font-family="Times,serif" font-size="14.00" fill="green">source</text>
</g>
<!-- pattern_feedback_tool.linters._HarvesterProtocol -->
<g id="node4" class="node">
<title>pattern_feedback_tool.linters._HarvesterProtocol</title>
<polygon fill="none" stroke="black" points="188.5,-67.5 188.5,-137.5 343.5,-137.5 343.5,-67.5 188.5,-67.5"/>
<text text-anchor="middle" x="266" y="-122.3" font-family="Times,serif" font-size="14.00">_HarvesterProtocol</text>
<polyline fill="none" stroke="black" points="188.5,-114.5 343.5,-114.5 "/>
<polyline fill="none" stroke="black" points="188.5,-90.5 343.5,-90.5 "/>
<text text-anchor="start" x="196.5" y="-75.3" font-family="Times,serif" font-size="14.00">as_md(): str</text>
</g>
<!-- pattern_feedback_tool.settings._Settings -->
<g id="node5" class="node">
<title>pattern_feedback_tool.settings._Settings</title>
<polygon fill="none" stroke="black" points="362,-0.5 362,-204.5 596,-204.5 596,-0.5 362,-0.5"/>
<text text-anchor="middle" x="479" y="-189.3" font-family="Times,serif" font-size="14.00">_Settings</text>
<polyline fill="none" stroke="black" points="362,-181.5 596,-181.5 "/>
<text text-anchor="start" x="370" y="-166.3" font-family="Times,serif" font-size="14.00">ACTIVE_TASK : str</text>
<text text-anchor="start" x="370" y="-151.3" font-family="Times,serif" font-size="14.00">ARGS_FLAKE8 : str</text>
<text text-anchor="start" x="370" y="-136.3" font-family="Times,serif" font-size="14.00">ARGS_MYPY : str</text>
<text text-anchor="start" x="370" y="-121.3" font-family="Times,serif" font-size="14.00">ARGS_PYLINT : str</text>
<text text-anchor="start" x="370" y="-106.3" font-family="Times,serif" font-size="14.00">ARGS_PYTEST : str</text>
<text text-anchor="start" x="370" y="-91.3" font-family="Times,serif" font-size="14.00">COMPLETED_TASKS : list[str]</text>
<text text-anchor="start" x="370" y="-76.3" font-family="Times,serif" font-size="14.00">PROJ_DIR : Path</text>
<text text-anchor="start" x="370" y="-61.3" font-family="Times,serif" font-size="14.00">USER_CONFIG : Path</text>
<polyline fill="none" stroke="black" points="362,-53.5 596,-53.5 "/>
<text text-anchor="start" x="370" y="-38.3" font-family="Times,serif" font-size="14.00">next_task(): None</text>
<text text-anchor="start" x="370" y="-23.3" font-family="Times,serif" font-size="14.00">persist(): None</text>
<text text-anchor="start" x="370" y="-8.3" font-family="Times,serif" font-size="14.00">task_dir(): Path</text>
</g>
</g>
</svg>
