<?xml version="1.0" encoding="UTF-8" standalone="no"?>
<!DOCTYPE svg PUBLIC "-//W3C//DTD SVG 1.1//EN"
 "http://www.w3.org/Graphics/SVG/1.1/DTD/svg11.dtd">
<!-- Generated by graphviz version 7.0.0 (20221023.0053)
 -->
<!-- Title: classes Pages: 1 -->
<svg width="510pt" height="469pt"
 viewBox="0.00 0.00 509.50 469.00" xmlns="http://www.w3.org/2000/svg" xmlns:xlink="http://www.w3.org/1999/xlink">
<g id="graph0" class="graph" transform="scale(1 1) rotate(0) translate(4 465)">
<title>classes</title>
<polygon fill="white" stroke="none" points="-4,4 -4,-465 505.5,-465 505.5,4 -4,4"/>
<!-- pattern_feedback_tool.settings._Settings.Config -->
<g id="node1" class="node">
<title>pattern_feedback_tool.settings._Settings.Config</title>
<polygon fill="none" stroke="black" points="0,-68 0,-137 73,-137 73,-68 0,-68"/>
<text text-anchor="middle" x="36.5" y="-121.8" font-family="Times,serif" font-size="14.00">Config</text>
<polyline fill="none" stroke="black" points="0,-114 73,-114"/>
<text text-anchor="start" x="8" y="-98.8" font-family="Times,serif" font-size="14.00">prefix : str</text>
<polyline fill="none" stroke="black" points="0,-91 73,-91"/>
<text text-anchor="middle" x="36.5" y="-75.8" font-family="Times,serif" font-size="14.00"> </text>
</g>
<!-- pattern_feedback_tool.lint_parsers.LintLog -->
<g id="node2" class="node">
<title>pattern_feedback_tool.lint_parsers.LintLog</title>
<polygon fill="none" stroke="black" points="16,-256.5 16,-460.5 221,-460.5 221,-256.5 16,-256.5"/>
<text text-anchor="middle" x="118.5" y="-445.3" font-family="Times,serif" font-size="14.00">LintLog</text>
<polyline fill="none" stroke="black" points="16,-437.5 221,-437.5"/>
<text text-anchor="start" x="24" y="-422.3" font-family="Times,serif" font-size="14.00">column : str</text>
<text text-anchor="start" x="24" y="-407.3" font-family="Times,serif" font-size="14.00">end_column : Optional[str | None]</text>
<text text-anchor="start" x="24" y="-392.3" font-family="Times,serif" font-size="14.00">end_line : Optional[str | None]</text>
<text text-anchor="start" x="24" y="-377.3" font-family="Times,serif" font-size="14.00">file_path : str</text>
<text text-anchor="start" x="24" y="-362.3" font-family="Times,serif" font-size="14.00">kind : Optional[str | None]</text>
<text text-anchor="start" x="24" y="-347.3" font-family="Times,serif" font-size="14.00">line : str</text>
<text text-anchor="start" x="24" y="-332.3" font-family="Times,serif" font-size="14.00">message : str</text>
<text text-anchor="start" x="24" y="-317.3" font-family="Times,serif" font-size="14.00">message_id : str</text>
<text text-anchor="start" x="24" y="-302.3" font-family="Times,serif" font-size="14.00">obj : Optional[str | None]</text>
<text text-anchor="start" x="24" y="-287.3" font-family="Times,serif" font-size="14.00">source</text>
<polyline fill="none" stroke="black" points="16,-279.5 221,-279.5"/>
<text text-anchor="start" x="24" y="-264.3" font-family="Times,serif" font-size="14.00">from_pylint(): &#39;LintLog&#39;</text>
</g>
<!-- pattern_feedback_tool.lint_parsers.Linter -->
<g id="node3" class="node">
<title>pattern_feedback_tool.lint_parsers.Linter</title>
<polygon fill="none" stroke="black" points="91.5,-68 91.5,-137 145.5,-137 145.5,-68 91.5,-68"/>
<text text-anchor="middle" x="118.5" y="-121.8" font-family="Times,serif" font-size="14.00">Linter</text>
<polyline fill="none" stroke="black" points="91.5,-114 145.5,-114"/>
<text text-anchor="start" x="99.5" y="-98.8" font-family="Times,serif" font-size="14.00">name</text>
<polyline fill="none" stroke="black" points="91.5,-91 145.5,-91"/>
<text text-anchor="middle" x="118.5" y="-75.8" font-family="Times,serif" font-size="14.00"> </text>
</g>
<!-- pattern_feedback_tool.lint_parsers.Linter&#45;&gt;pattern_feedback_tool.lint_parsers.LintLog -->
<g id="edge1" class="edge">
<title>pattern_feedback_tool.lint_parsers.Linter&#45;&gt;pattern_feedback_tool.lint_parsers.LintLog</title>
<path fill="none" stroke="black" d="M118.5,-136.97C118.5,-164.68 118.5,-205.72 118.5,-244.91"/>
<polygon fill="black" stroke="black" points="118.5,-244.72 122.5,-250.72 118.5,-256.72 114.5,-250.72 118.5,-244.72"/>
<text text-anchor="middle" x="136.5" y="-226.8" font-family="Times,serif" font-size="14.00" fill="green">source</text>
</g>
<!-- pattern_feedback_tool.linters._HarvesterProtocol -->
<g id="node4" class="node">
<title>pattern_feedback_tool.linters._HarvesterProtocol</title>
<polygon fill="none" stroke="black" points="163.5,-67.5 163.5,-137.5 285.5,-137.5 285.5,-67.5 163.5,-67.5"/>
<text text-anchor="middle" x="224.5" y="-122.3" font-family="Times,serif" font-size="14.00">_HarvesterProtocol</text>
<polyline fill="none" stroke="black" points="163.5,-114.5 285.5,-114.5"/>
<polyline fill="none" stroke="black" points="163.5,-90.5 285.5,-90.5"/>
<text text-anchor="start" x="171.5" y="-75.3" font-family="Times,serif" font-size="14.00">as_md(): str</text>
</g>
<!-- pattern_feedback_tool.settings._Settings -->
<g id="node5" class="node">
<title>pattern_feedback_tool.settings._Settings</title>
<polygon fill="none" stroke="black" points="303.5,-0.5 303.5,-204.5 501.5,-204.5 501.5,-0.5 303.5,-0.5"/>
<text text-anchor="middle" x="402.5" y="-189.3" font-family="Times,serif" font-size="14.00">_Settings</text>
<polyline fill="none" stroke="black" points="303.5,-181.5 501.5,-181.5"/>
<text text-anchor="start" x="311.5" y="-166.3" font-family="Times,serif" font-size="14.00">ACTIVE_TASK : str</text>
<text text-anchor="start" x="311.5" y="-151.3" font-family="Times,serif" font-size="14.00">ARGS_FLAKE8 : str</text>
<text text-anchor="start" x="311.5" y="-136.3" font-family="Times,serif" font-size="14.00">ARGS_MYPY : str</text>
<text text-anchor="start" x="311.5" y="-121.3" font-family="Times,serif" font-size="14.00">ARGS_PYLINT : str</text>
<text text-anchor="start" x="311.5" y="-106.3" font-family="Times,serif" font-size="14.00">ARGS_PYTEST : str</text>
<text text-anchor="start" x="311.5" y="-91.3" font-family="Times,serif" font-size="14.00">COMPLETED_TASKS : list[str]</text>
<text text-anchor="start" x="311.5" y="-76.3" font-family="Times,serif" font-size="14.00">PROJ_DIR : Path</text>
<text text-anchor="start" x="311.5" y="-61.3" font-family="Times,serif" font-size="14.00">USER_CONFIG : Path</text>
<polyline fill="none" stroke="black" points="303.5,-53.5 501.5,-53.5"/>
<text text-anchor="start" x="311.5" y="-38.3" font-family="Times,serif" font-size="14.00">next_task(): None</text>
<text text-anchor="start" x="311.5" y="-23.3" font-family="Times,serif" font-size="14.00">persist(): None</text>
<text text-anchor="start" x="311.5" y="-8.3" font-family="Times,serif" font-size="14.00">task_dir(): Path</text>
</g>
</g>
</svg>
