<?xml version="1.0" encoding="UTF-8" standalone="no"?>
<!DOCTYPE svg PUBLIC "-//W3C//DTD SVG 1.1//EN"
 "http://www.w3.org/Graphics/SVG/1.1/DTD/svg11.dtd">
<!-- Generated by graphviz version 2.43.0 (0)
 -->
<!-- Title: classes Pages: 1 -->
<svg width="542pt" height="424pt"
 viewBox="0.00 0.00 542.00 424.00" xmlns="http://www.w3.org/2000/svg" xmlns:xlink="http://www.w3.org/1999/xlink">
<g id="graph0" class="graph" transform="scale(1 1) rotate(0) translate(4 420)">
<title>classes</title>
<polygon fill="white" stroke="transparent" points="-4,4 -4,-420 538,-420 538,4 -4,4"/>
<!-- pattern_feedback_tool.settings._Settings.Config -->
<g id="node1" class="node">
<title>pattern_feedback_tool.settings._Settings.Config</title>
<polygon fill="none" stroke="black" points="0,-45.5 0,-114.5 92,-114.5 92,-45.5 0,-45.5"/>
<text text-anchor="middle" x="46" y="-99.3" font-family="Times,serif" font-size="14.00">Config</text>
<polyline fill="none" stroke="black" points="0,-91.5 92,-91.5 "/>
<text text-anchor="start" x="8" y="-76.3" font-family="Times,serif" font-size="14.00">prefix : str</text>
<polyline fill="none" stroke="black" points="0,-68.5 92,-68.5 "/>
<text text-anchor="middle" x="46" y="-53.3" font-family="Times,serif" font-size="14.00"> </text>
</g>
<!-- pattern_feedback_tool.lint_parsers.LintLog -->
<g id="node2" class="node">
<title>pattern_feedback_tool.lint_parsers.LintLog</title>
<polygon fill="none" stroke="black" points="11.5,-211.5 11.5,-415.5 268.5,-415.5 268.5,-211.5 11.5,-211.5"/>
<text text-anchor="middle" x="140" y="-400.3" font-family="Times,serif" font-size="14.00">LintLog</text>
<polyline fill="none" stroke="black" points="11.5,-392.5 268.5,-392.5 "/>
<text text-anchor="start" x="19.5" y="-377.3" font-family="Times,serif" font-size="14.00">column : str</text>
<text text-anchor="start" x="19.5" y="-362.3" font-family="Times,serif" font-size="14.00">end_column : Optional[str | None]</text>
<text text-anchor="start" x="19.5" y="-347.3" font-family="Times,serif" font-size="14.00">end_line : Optional[str | None]</text>
<text text-anchor="start" x="19.5" y="-332.3" font-family="Times,serif" font-size="14.00">file_path : str</text>
<text text-anchor="start" x="19.5" y="-317.3" font-family="Times,serif" font-size="14.00">kind : Optional[str | None]</text>
<text text-anchor="start" x="19.5" y="-302.3" font-family="Times,serif" font-size="14.00">line : str</text>
<text text-anchor="start" x="19.5" y="-287.3" font-family="Times,serif" font-size="14.00">message : str</text>
<text text-anchor="start" x="19.5" y="-272.3" font-family="Times,serif" font-size="14.00">message_id : str</text>
<text text-anchor="start" x="19.5" y="-257.3" font-family="Times,serif" font-size="14.00">obj : Optional[str | None]</text>
<text text-anchor="start" x="19.5" y="-242.3" font-family="Times,serif" font-size="14.00">source</text>
<polyline fill="none" stroke="black" points="11.5,-234.5 268.5,-234.5 "/>
<text text-anchor="start" x="19.5" y="-219.3" font-family="Times,serif" font-size="14.00">from_pylint(): &#39;LintLog&#39;</text>
</g>
<!-- pattern_feedback_tool.lint_parsers.Linter -->
<g id="node3" class="node">
<title>pattern_feedback_tool.lint_parsers.Linter</title>
<polygon fill="none" stroke="black" points="110,-45.5 110,-114.5 170,-114.5 170,-45.5 110,-45.5"/>
<text text-anchor="middle" x="140" y="-99.3" font-family="Times,serif" font-size="14.00">Linter</text>
<polyline fill="none" stroke="black" points="110,-91.5 170,-91.5 "/>
<text text-anchor="start" x="118" y="-76.3" font-family="Times,serif" font-size="14.00">name</text>
<polyline fill="none" stroke="black" points="110,-68.5 170,-68.5 "/>
<text text-anchor="middle" x="140" y="-53.3" font-family="Times,serif" font-size="14.00"> </text>
</g>
<!-- pattern_feedback_tool.lint_parsers.Linter&#45;&gt;pattern_feedback_tool.lint_parsers.LintLog -->
<g id="edge1" class="edge">
<title>pattern_feedback_tool.lint_parsers.Linter&#45;&gt;pattern_feedback_tool.lint_parsers.LintLog</title>
<path fill="none" stroke="black" d="M140,-114.66C140,-137.19 140,-168.27 140,-199.12"/>
<polygon fill="black" stroke="black" points="140,-199.37 144,-205.37 140,-211.37 136,-205.37 140,-199.37"/>
<text text-anchor="middle" x="164" y="-181.8" font-family="Times,serif" font-size="14.00" fill="green">source</text>
</g>
<!-- pattern_feedback_tool.linters._HarvesterProtocol -->
<g id="node4" class="node">
<title>pattern_feedback_tool.linters._HarvesterProtocol</title>
<polygon fill="none" stroke="black" points="188.5,-45 188.5,-115 343.5,-115 343.5,-45 188.5,-45"/>
<text text-anchor="middle" x="266" y="-99.8" font-family="Times,serif" font-size="14.00">_HarvesterProtocol</text>
<polyline fill="none" stroke="black" points="188.5,-92 343.5,-92 "/>
<polyline fill="none" stroke="black" points="188.5,-68 343.5,-68 "/>
<text text-anchor="start" x="196.5" y="-52.8" font-family="Times,serif" font-size="14.00">as_md(): str</text>
</g>
<!-- pattern_feedback_tool.settings._Settings -->
<g id="node5" class="node">
<title>pattern_feedback_tool.settings._Settings</title>
<polygon fill="none" stroke="black" points="362,-0.5 362,-159.5 534,-159.5 534,-0.5 362,-0.5"/>
<text text-anchor="middle" x="448" y="-144.3" font-family="Times,serif" font-size="14.00">_Settings</text>
<polyline fill="none" stroke="black" points="362,-136.5 534,-136.5 "/>
<text text-anchor="start" x="370" y="-121.3" font-family="Times,serif" font-size="14.00">ARGS_FLAKE8 : str</text>
<text text-anchor="start" x="370" y="-106.3" font-family="Times,serif" font-size="14.00">ARGS_MYPY : str</text>
<text text-anchor="start" x="370" y="-91.3" font-family="Times,serif" font-size="14.00">ARGS_PYLINT : str</text>
<text text-anchor="start" x="370" y="-76.3" font-family="Times,serif" font-size="14.00">ARGS_PYTEST : str</text>
<text text-anchor="start" x="370" y="-61.3" font-family="Times,serif" font-size="14.00">PROJ_DIR : Path</text>
<text text-anchor="start" x="370" y="-46.3" font-family="Times,serif" font-size="14.00">USER_CONFIG : Path</text>
<polyline fill="none" stroke="black" points="362,-38.5 534,-38.5 "/>
<text text-anchor="start" x="370" y="-23.3" font-family="Times,serif" font-size="14.00">persist(): None</text>
<text text-anchor="start" x="370" y="-8.3" font-family="Times,serif" font-size="14.00">task_dir(): Path</text>
</g>
</g>
</svg>
