<?xml version="1.0" encoding="UTF-8" standalone="no"?>
<!DOCTYPE svg PUBLIC "-//W3C//DTD SVG 1.1//EN"
 "http://www.w3.org/Graphics/SVG/1.1/DTD/svg11.dtd">
<!-- Generated by graphviz version 7.0.0 (20221023.0053)
 -->
<!-- Title: packages Pages: 1 -->
<svg width="758pt" height="116pt"
 viewBox="0.00 0.00 758.00 116.00" xmlns="http://www.w3.org/2000/svg" xmlns:xlink="http://www.w3.org/1999/xlink">
<g id="graph0" class="graph" transform="scale(1 1) rotate(0) translate(4 112)">
<title>packages</title>
<polygon fill="white" stroke="none" points="-4,4 -4,-112 754,-112 754,4 -4,4"/>
<!-- pattern_feedback_tool -->
<g id="node1" class="node">
<title>pattern_feedback_tool</title>
<polygon fill="none" stroke="black" points="137,-36 0,-36 0,0 137,0 137,-36"/>
<text text-anchor="middle" x="68.5" y="-14.3" font-family="Times,serif" font-size="14.00">pattern_feedback_tool</text>
</g>
<!-- pattern_feedback_tool.doit_tasks -->
<g id="node2" class="node">
<title>pattern_feedback_tool.doit_tasks</title>
<polygon fill="none" stroke="black" points="351.5,-36 155.5,-36 155.5,0 351.5,0 351.5,-36"/>
<text text-anchor="middle" x="253.5" y="-14.3" font-family="Times,serif" font-size="14.00">pattern_feedback_tool.doit_tasks</text>
</g>
<!-- pattern_feedback_tool.lint_parsers -->
<g id="node4" class="node">
<title>pattern_feedback_tool.lint_parsers</title>
<polygon fill="none" stroke="black" points="249.5,-108 45.5,-108 45.5,-72 249.5,-72 249.5,-108"/>
<text text-anchor="middle" x="147.5" y="-86.3" font-family="Times,serif" font-size="14.00">pattern_feedback_tool.lint_parsers</text>
</g>
<!-- pattern_feedback_tool.doit_tasks&#45;&gt;pattern_feedback_tool.lint_parsers -->
<g id="edge1" class="edge">
<title>pattern_feedback_tool.doit_tasks&#45;&gt;pattern_feedback_tool.lint_parsers</title>
<path fill="none" stroke="black" d="M227.03,-36.48C213.39,-45.49 196.6,-56.58 181.96,-66.24"/>
<polygon fill="black" stroke="black" points="173.64,-71.74 179.5,-62.47 177.81,-68.98 181.98,-66.23 181.98,-66.23 181.98,-66.23 177.81,-68.98 184.46,-69.98 173.64,-71.74 173.64,-71.74"/>
</g>
<!-- pattern_feedback_tool.settings -->
<g id="node6" class="node">
<title>pattern_feedback_tool.settings</title>
<polygon fill="none" stroke="black" points="449.5,-108 267.5,-108 267.5,-72 449.5,-72 449.5,-108"/>
<text text-anchor="middle" x="358.5" y="-86.3" font-family="Times,serif" font-size="14.00">pattern_feedback_tool.settings</text>
</g>
<!-- pattern_feedback_tool.doit_tasks&#45;&gt;pattern_feedback_tool.settings -->
<g id="edge2" class="edge">
<title>pattern_feedback_tool.doit_tasks&#45;&gt;pattern_feedback_tool.settings</title>
<path fill="none" stroke="black" d="M279.73,-36.48C293.23,-45.49 309.86,-56.58 324.36,-66.24"/>
<polygon fill="black" stroke="black" points="332.61,-71.74 321.79,-69.94 328.45,-68.97 324.29,-66.19 324.29,-66.19 324.29,-66.19 328.45,-68.97 326.78,-62.45 332.61,-71.74 332.61,-71.74"/>
</g>
<!-- pattern_feedback_tool.graphics -->
<g id="node3" class="node">
<title>pattern_feedback_tool.graphics</title>
<polygon fill="none" stroke="black" points="557,-36 370,-36 370,0 557,0 557,-36"/>
<text text-anchor="middle" x="463.5" y="-14.3" font-family="Times,serif" font-size="14.00">pattern_feedback_tool.graphics</text>
</g>
<!-- pattern_feedback_tool.linters -->
<g id="node5" class="node">
<title>pattern_feedback_tool.linters</title>
<polygon fill="none" stroke="black" points="750,-36 575,-36 575,0 750,0 750,-36"/>
<text text-anchor="middle" x="662.5" y="-14.3" font-family="Times,serif" font-size="14.00">pattern_feedback_tool.linters</text>
</g>
</g>
</svg>
