<?xml version="1.0" encoding="UTF-8" standalone="no"?>
<!DOCTYPE svg PUBLIC "-//W3C//DTD SVG 1.1//EN"
 "http://www.w3.org/Graphics/SVG/1.1/DTD/svg11.dtd">
<!-- Generated by graphviz version 2.43.0 (0)
 -->
<!-- Title: packages Pages: 1 -->
<svg width="954pt" height="116pt"
 viewBox="0.00 0.00 953.50 116.00" xmlns="http://www.w3.org/2000/svg" xmlns:xlink="http://www.w3.org/1999/xlink">
<g id="graph0" class="graph" transform="scale(1 1) rotate(0) translate(4 112)">
<title>packages</title>
<polygon fill="white" stroke="transparent" points="-4,4 -4,-112 949.5,-112 949.5,4 -4,4"/>
<!-- pattern_feedback_tool -->
<g id="node1" class="node">
<title>pattern_feedback_tool</title>
<polygon fill="none" stroke="black" points="174,-36 0,-36 0,0 174,0 174,-36"/>
<text text-anchor="middle" x="87" y="-14.3" font-family="Times,serif" font-size="14.00">pattern_feedback_tool</text>
</g>
<!-- pattern_feedback_tool.doit_tasks -->
<g id="node2" class="node">
<title>pattern_feedback_tool.doit_tasks</title>
<polygon fill="none" stroke="black" points="443.5,-36 192.5,-36 192.5,0 443.5,0 443.5,-36"/>
<text text-anchor="middle" x="318" y="-14.3" font-family="Times,serif" font-size="14.00">pattern_feedback_tool.doit_tasks</text>
</g>
<!-- pattern_feedback_tool.lint_parsers -->
<g id="node4" class="node">
<title>pattern_feedback_tool.lint_parsers</title>
<polygon fill="none" stroke="black" points="315.5,-108 52.5,-108 52.5,-72 315.5,-72 315.5,-108"/>
<text text-anchor="middle" x="184" y="-86.3" font-family="Times,serif" font-size="14.00">pattern_feedback_tool.lint_parsers</text>
</g>
<!-- pattern_feedback_tool.doit_tasks&#45;&gt;pattern_feedback_tool.lint_parsers -->
<g id="edge1" class="edge">
<title>pattern_feedback_tool.doit_tasks&#45;&gt;pattern_feedback_tool.lint_parsers</title>
<path fill="none" stroke="black" d="M285.22,-36.12C267.37,-45.45 245.1,-57.08 226,-67.06"/>
<polygon fill="black" stroke="black" points="216.91,-71.81 223.69,-63.19 221.34,-69.5 225.77,-67.18 225.77,-67.18 225.77,-67.18 221.34,-69.5 227.85,-71.17 216.91,-71.81 216.91,-71.81"/>
</g>
<!-- pattern_feedback_tool.settings -->
<g id="node6" class="node">
<title>pattern_feedback_tool.settings</title>
<polygon fill="none" stroke="black" points="570,-108 334,-108 334,-72 570,-72 570,-108"/>
<text text-anchor="middle" x="452" y="-86.3" font-family="Times,serif" font-size="14.00">pattern_feedback_tool.settings</text>
</g>
<!-- pattern_feedback_tool.doit_tasks&#45;&gt;pattern_feedback_tool.settings -->
<g id="edge2" class="edge">
<title>pattern_feedback_tool.doit_tasks&#45;&gt;pattern_feedback_tool.settings</title>
<path fill="none" stroke="black" d="M350.78,-36.12C368.63,-45.45 390.9,-57.08 410,-67.06"/>
<polygon fill="black" stroke="black" points="419.09,-71.81 408.15,-71.17 414.66,-69.5 410.23,-67.18 410.23,-67.18 410.23,-67.18 414.66,-69.5 412.31,-63.19 419.09,-71.81 419.09,-71.81"/>
</g>
<!-- pattern_feedback_tool.graphics -->
<g id="node3" class="node">
<title>pattern_feedback_tool.graphics</title>
<polygon fill="none" stroke="black" points="702,-36 462,-36 462,0 702,0 702,-36"/>
<text text-anchor="middle" x="582" y="-14.3" font-family="Times,serif" font-size="14.00">pattern_feedback_tool.graphics</text>
</g>
<!-- pattern_feedback_tool.linters -->
<g id="node5" class="node">
<title>pattern_feedback_tool.linters</title>
<polygon fill="none" stroke="black" points="945.5,-36 720.5,-36 720.5,0 945.5,0 945.5,-36"/>
<text text-anchor="middle" x="833" y="-14.3" font-family="Times,serif" font-size="14.00">pattern_feedback_tool.linters</text>
</g>
</g>
</svg>
