<?xml version="1.0" encoding="UTF-8" standalone="no"?>
<!DOCTYPE svg PUBLIC "-//W3C//DTD SVG 1.1//EN"
 "http://www.w3.org/Graphics/SVG/1.1/DTD/svg11.dtd">
<!-- Generated by graphviz version 6.0.2 (20221011.1828)
 -->
<!-- Title: packages Pages: 1 -->
<svg width="758pt" height="116pt"
 viewBox="0.00 0.00 758.00 116.00" xmlns="http://www.w3.org/2000/svg" xmlns:xlink="http://www.w3.org/1999/xlink">
<g id="graph0" class="graph" transform="scale(1 1) rotate(0) translate(4 112)">
<title>packages</title>
<polygon fill="white" stroke="none" points="-4,4 -4,-112 754,-112 754,4 -4,4"/>
<!-- pattern_feedback_tool -->
<g id="node1" class="node">
<title>pattern_feedback_tool</title>
<polygon fill="none" stroke="black" points="137,-36 0,-36 0,0 137,0 137,-36"/>
<text text-anchor="middle" x="68.5" y="-14.3" font-family="Times,serif" font-size="14.00">pattern_feedback_tool</text>
</g>
<!-- pattern_feedback_tool.doit_tasks -->
<g id="node2" class="node">
<title>pattern_feedback_tool.doit_tasks</title>
<polygon fill="none" stroke="black" points="351.5,-36 155.5,-36 155.5,0 351.5,0 351.5,-36"/>
<text text-anchor="middle" x="253.5" y="-14.3" font-family="Times,serif" font-size="14.00">pattern_feedback_tool.doit_tasks</text>
</g>
<!-- pattern_feedback_tool.lint_parsers -->
<g id="node4" class="node">
<title>pattern_feedback_tool.lint_parsers</title>
<polygon fill="none" stroke="black" points="249.5,-108 45.5,-108 45.5,-72 249.5,-72 249.5,-108"/>
<text text-anchor="middle" x="147.5" y="-86.3" font-family="Times,serif" font-size="14.00">pattern_feedback_tool.lint_parsers</text>
</g>
<!-- pattern_feedback_tool.doit_tasks&#45;&gt;pattern_feedback_tool.lint_parsers -->
<g id="edge1" class="edge">
<title>pattern_feedback_tool.doit_tasks&#45;&gt;pattern_feedback_tool.lint_parsers</title>
<path fill="none" stroke="black" d="M227.57,-36.12C213.84,-45.19 196.79,-56.45 181.96,-66.24"/>
<polygon fill="black" stroke="black" points="173.53,-71.81 179.4,-62.54 177.7,-69.05 181.87,-66.3 181.87,-66.3 181.87,-66.3 177.7,-69.05 184.35,-70.05 173.53,-71.81 173.53,-71.81"/>
</g>
<!-- pattern_feedback_tool.settings -->
<g id="node6" class="node">
<title>pattern_feedback_tool.settings</title>
<polygon fill="none" stroke="black" points="449.5,-108 267.5,-108 267.5,-72 449.5,-72 449.5,-108"/>
<text text-anchor="middle" x="358.5" y="-86.3" font-family="Times,serif" font-size="14.00">pattern_feedback_tool.settings</text>
</g>
<!-- pattern_feedback_tool.doit_tasks&#45;&gt;pattern_feedback_tool.settings -->
<g id="edge2" class="edge">
<title>pattern_feedback_tool.doit_tasks&#45;&gt;pattern_feedback_tool.settings</title>
<path fill="none" stroke="black" d="M279.19,-36.12C292.79,-45.19 309.67,-56.45 324.36,-66.24"/>
<polygon fill="black" stroke="black" points="332.72,-71.81 321.9,-70.01 328.56,-69.04 324.39,-66.26 324.39,-66.26 324.39,-66.26 328.56,-69.04 326.89,-62.52 332.72,-71.81 332.72,-71.81"/>
</g>
<!-- pattern_feedback_tool.graphics -->
<g id="node3" class="node">
<title>pattern_feedback_tool.graphics</title>
<polygon fill="none" stroke="black" points="557,-36 370,-36 370,0 557,0 557,-36"/>
<text text-anchor="middle" x="463.5" y="-14.3" font-family="Times,serif" font-size="14.00">pattern_feedback_tool.graphics</text>
</g>
<!-- pattern_feedback_tool.linters -->
<g id="node5" class="node">
<title>pattern_feedback_tool.linters</title>
<polygon fill="none" stroke="black" points="750,-36 575,-36 575,0 750,0 750,-36"/>
<text text-anchor="middle" x="662.5" y="-14.3" font-family="Times,serif" font-size="14.00">pattern_feedback_tool.linters</text>
</g>
</g>
</svg>
