<?xml version="1.0" encoding="UTF-8" standalone="no"?>
<!DOCTYPE svg PUBLIC "-//W3C//DTD SVG 1.1//EN"
 "http://www.w3.org/Graphics/SVG/1.1/DTD/svg11.dtd">
<!-- Generated by graphviz version 2.43.0 (0)
 -->
<!-- Title: packages Pages: 1 -->
<svg width="954pt" height="116pt"
 viewBox="0.00 0.00 953.50 116.00" xmlns="http://www.w3.org/2000/svg" xmlns:xlink="http://www.w3.org/1999/xlink">
<g id="graph0" class="graph" transform="scale(1 1) rotate(0) translate(4 112)">
<title>packages</title>
<polygon fill="white" stroke="transparent" points="-4,4 -4,-112 949.5,-112 949.5,4 -4,4"/>
<!-- pattern_feedback_tool -->
<g id="node1" class="node">
<title>pattern_feedback_tool</title>
<polygon fill="none" stroke="black" points="174,-36 0,-36 0,0 174,0 174,-36"/>
<text text-anchor="middle" x="87" y="-14.3" font-family="Times,serif" font-size="14.00">pattern_feedback_tool</text>
</g>
<!-- pattern_feedback_tool.doit_tasks -->
<g id="node2" class="node">
<title>pattern_feedback_tool.doit_tasks</title>
<polygon fill="none" stroke="black" points="443.5,-36 192.5,-36 192.5,0 443.5,0 443.5,-36"/>
<text text-anchor="middle" x="318" y="-14.3" font-family="Times,serif" font-size="14.00">pattern_feedback_tool.doit_tasks</text>
</g>
<!-- pattern_feedback_tool.settings -->
<g id="node5" class="node">
<title>pattern_feedback_tool.settings</title>
<polygon fill="none" stroke="black" points="436,-108 200,-108 200,-72 436,-72 436,-108"/>
<text text-anchor="middle" x="318" y="-86.3" font-family="Times,serif" font-size="14.00">pattern_feedback_tool.settings</text>
</g>
<!-- pattern_feedback_tool.doit_tasks&#45;&gt;pattern_feedback_tool.settings -->
<g id="edge1" class="edge">
<title>pattern_feedback_tool.doit_tasks&#45;&gt;pattern_feedback_tool.settings</title>
<path fill="none" stroke="black" d="M318,-36.3C318,-44.02 318,-53.29 318,-61.89"/>
<polygon fill="black" stroke="black" points="318,-71.9 313.5,-61.9 318,-66.9 318,-61.9 318,-61.9 318,-61.9 318,-66.9 322.5,-61.9 318,-71.9 318,-71.9"/>
</g>
<!-- pattern_feedback_tool.graphics -->
<g id="node3" class="node">
<title>pattern_feedback_tool.graphics</title>
<polygon fill="none" stroke="black" points="702,-36 462,-36 462,0 702,0 702,-36"/>
<text text-anchor="middle" x="582" y="-14.3" font-family="Times,serif" font-size="14.00">pattern_feedback_tool.graphics</text>
</g>
<!-- pattern_feedback_tool.linters -->
<g id="node4" class="node">
<title>pattern_feedback_tool.linters</title>
<polygon fill="none" stroke="black" points="945.5,-36 720.5,-36 720.5,0 945.5,0 945.5,-36"/>
<text text-anchor="middle" x="833" y="-14.3" font-family="Times,serif" font-size="14.00">pattern_feedback_tool.linters</text>
</g>
</g>
</svg>
