<?xml version="1.0" encoding="UTF-8" standalone="no"?><svg xmlns="http://www.w3.org/2000/svg" xmlns:xlink="http://www.w3.org/1999/xlink" contentStyleType="text/css" height="538px" preserveAspectRatio="none" style="width:1570px;height:538px;background:#FFFFFF;" version="1.1" viewBox="0 0 1570 538" width="1570px" zoomAndPan="magnify"><defs/><g><!--MD5=[020c6f2cc0ced2db53f41309b7e24d1e]
class NonLoanableItem--><g id="elem_NonLoanableItem"><rect codeLine="64" fill="#F1F1F1" height="48" id="NonLoanableItem" rx="2.5" ry="2.5" style="stroke:#181818;stroke-width:0.5;" width="159" x="739" y="326.5"/><ellipse cx="754" cy="342.5" fill="#ADD1B2" rx="11" ry="11" style="stroke:#181818;stroke-width:1.0;"/><path d="M756.3438,338.1719 C755.4063,337.7344 754.8125,337.5938 753.9375,337.5938 C751.3125,337.5938 749.3125,339.6719 749.3125,342.3906 L749.3125,343.5156 C749.3125,346.0938 751.4219,347.9844 754.3125,347.9844 C755.5313,347.9844 756.6875,347.6875 757.4375,347.1406 C758.0156,346.7344 758.3438,346.2813 758.3438,345.8906 C758.3438,345.4375 757.9531,345.0469 757.4844,345.0469 C757.2656,345.0469 757.0625,345.125 756.875,345.3125 C756.4219,345.7969 756.4219,345.7969 756.2344,345.8906 C755.8125,346.1563 755.125,346.2813 754.3594,346.2813 C752.3125,346.2813 751.0156,345.1875 751.0156,343.4844 L751.0156,342.3906 C751.0156,340.6094 752.2656,339.2969 754,339.2969 C754.5781,339.2969 755.1875,339.4531 755.6563,339.7031 C756.1406,339.9844 756.3125,340.2031 756.4063,340.6094 C756.4688,341.0156 756.5,341.1406 756.6406,341.2656 C756.7813,341.4063 757.0156,341.5156 757.2344,341.5156 C757.5,341.5156 757.7656,341.375 757.9375,341.1563 C758.0469,341 758.0781,340.8125 758.0781,340.3906 L758.0781,338.9688 C758.0781,338.5313 758.0625,338.4063 757.9688,338.25 C757.8125,337.9844 757.5313,337.8438 757.2344,337.8438 C756.9375,337.8438 756.7344,337.9375 756.5156,338.25 L756.3438,338.1719 Z " fill="#000000"/><text fill="#000000" font-family="sans-serif" font-size="14" lengthAdjust="spacing" textLength="127" x="768" y="347.3467">NonLoanableItem</text><line style="stroke:#181818;stroke-width:0.5;" x1="740" x2="897" y1="358.5" y2="358.5"/><line style="stroke:#181818;stroke-width:0.5;" x1="740" x2="897" y1="366.5" y2="366.5"/></g><!--MD5=[133a22135ad8f1809cd7a09547802fc2]
class ReferenceBook--><g id="elem_ReferenceBook"><rect codeLine="65" fill="#F1F1F1" height="48" id="ReferenceBook" rx="2.5" ry="2.5" style="stroke:#181818;stroke-width:0.5;" width="144" x="736.5" y="475"/><ellipse cx="751.5" cy="491" fill="#ADD1B2" rx="11" ry="11" style="stroke:#181818;stroke-width:1.0;"/><path d="M753.8438,486.6719 C752.9063,486.2344 752.3125,486.0938 751.4375,486.0938 C748.8125,486.0938 746.8125,488.1719 746.8125,490.8906 L746.8125,492.0156 C746.8125,494.5938 748.9219,496.4844 751.8125,496.4844 C753.0313,496.4844 754.1875,496.1875 754.9375,495.6406 C755.5156,495.2344 755.8438,494.7813 755.8438,494.3906 C755.8438,493.9375 755.4531,493.5469 754.9844,493.5469 C754.7656,493.5469 754.5625,493.625 754.375,493.8125 C753.9219,494.2969 753.9219,494.2969 753.7344,494.3906 C753.3125,494.6563 752.625,494.7813 751.8594,494.7813 C749.8125,494.7813 748.5156,493.6875 748.5156,491.9844 L748.5156,490.8906 C748.5156,489.1094 749.7656,487.7969 751.5,487.7969 C752.0781,487.7969 752.6875,487.9531 753.1563,488.2031 C753.6406,488.4844 753.8125,488.7031 753.9063,489.1094 C753.9688,489.5156 754,489.6406 754.1406,489.7656 C754.2813,489.9063 754.5156,490.0156 754.7344,490.0156 C755,490.0156 755.2656,489.875 755.4375,489.6563 C755.5469,489.5 755.5781,489.3125 755.5781,488.8906 L755.5781,487.4688 C755.5781,487.0313 755.5625,486.9063 755.4688,486.75 C755.3125,486.4844 755.0313,486.3438 754.7344,486.3438 C754.4375,486.3438 754.2344,486.4375 754.0156,486.75 L753.8438,486.6719 Z " fill="#000000"/><text fill="#000000" font-family="sans-serif" font-size="14" lengthAdjust="spacing" textLength="112" x="765.5" y="495.8467">ReferenceBook</text><line style="stroke:#181818;stroke-width:0.5;" x1="737.5" x2="879.5" y1="507" y2="507"/><line style="stroke:#181818;stroke-width:0.5;" x1="737.5" x2="879.5" y1="515" y2="515"/></g><!--MD5=[35c8b0245acaa9e97c7c37c4368336a3]
class Magazine--><g id="elem_Magazine"><rect codeLine="66" fill="#F1F1F1" height="48" id="Magazine" rx="2.5" ry="2.5" style="stroke:#181818;stroke-width:0.5;" width="99" x="916" y="475"/><ellipse cx="931" cy="491" fill="#ADD1B2" rx="11" ry="11" style="stroke:#181818;stroke-width:1.0;"/><path d="M933.3438,486.6719 C932.4063,486.2344 931.8125,486.0938 930.9375,486.0938 C928.3125,486.0938 926.3125,488.1719 926.3125,490.8906 L926.3125,492.0156 C926.3125,494.5938 928.4219,496.4844 931.3125,496.4844 C932.5313,496.4844 933.6875,496.1875 934.4375,495.6406 C935.0156,495.2344 935.3438,494.7813 935.3438,494.3906 C935.3438,493.9375 934.9531,493.5469 934.4844,493.5469 C934.2656,493.5469 934.0625,493.625 933.875,493.8125 C933.4219,494.2969 933.4219,494.2969 933.2344,494.3906 C932.8125,494.6563 932.125,494.7813 931.3594,494.7813 C929.3125,494.7813 928.0156,493.6875 928.0156,491.9844 L928.0156,490.8906 C928.0156,489.1094 929.2656,487.7969 931,487.7969 C931.5781,487.7969 932.1875,487.9531 932.6563,488.2031 C933.1406,488.4844 933.3125,488.7031 933.4063,489.1094 C933.4688,489.5156 933.5,489.6406 933.6406,489.7656 C933.7813,489.9063 934.0156,490.0156 934.2344,490.0156 C934.5,490.0156 934.7656,489.875 934.9375,489.6563 C935.0469,489.5 935.0781,489.3125 935.0781,488.8906 L935.0781,487.4688 C935.0781,487.0313 935.0625,486.9063 934.9688,486.75 C934.8125,486.4844 934.5313,486.3438 934.2344,486.3438 C933.9375,486.3438 933.7344,486.4375 933.5156,486.75 L933.3438,486.6719 Z " fill="#000000"/><text fill="#000000" font-family="sans-serif" font-size="14" lengthAdjust="spacing" textLength="67" x="945" y="495.8467">Magazine</text><line style="stroke:#181818;stroke-width:0.5;" x1="917" x2="1014" y1="507" y2="507"/><line style="stroke:#181818;stroke-width:0.5;" x1="917" x2="1014" y1="515" y2="515"/></g><!--MD5=[84e3a5e42879fb3231104d3c8e592439]
class Book--><g id="elem_Book"><rect codeLine="75" fill="#F1F1F1" height="64.2969" id="Book" rx="2.5" ry="2.5" style="stroke:#181818;stroke-width:0.5;" width="171" x="426" y="467"/><ellipse cx="488.75" cy="483" fill="#ADD1B2" rx="11" ry="11" style="stroke:#181818;stroke-width:1.0;"/><path d="M491.0938,478.6719 C490.1563,478.2344 489.5625,478.0938 488.6875,478.0938 C486.0625,478.0938 484.0625,480.1719 484.0625,482.8906 L484.0625,484.0156 C484.0625,486.5938 486.1719,488.4844 489.0625,488.4844 C490.2813,488.4844 491.4375,488.1875 492.1875,487.6406 C492.7656,487.2344 493.0938,486.7813 493.0938,486.3906 C493.0938,485.9375 492.7031,485.5469 492.2344,485.5469 C492.0156,485.5469 491.8125,485.625 491.625,485.8125 C491.1719,486.2969 491.1719,486.2969 490.9844,486.3906 C490.5625,486.6563 489.875,486.7813 489.1094,486.7813 C487.0625,486.7813 485.7656,485.6875 485.7656,483.9844 L485.7656,482.8906 C485.7656,481.1094 487.0156,479.7969 488.75,479.7969 C489.3281,479.7969 489.9375,479.9531 490.4063,480.2031 C490.8906,480.4844 491.0625,480.7031 491.1563,481.1094 C491.2188,481.5156 491.25,481.6406 491.3906,481.7656 C491.5313,481.9063 491.7656,482.0156 491.9844,482.0156 C492.25,482.0156 492.5156,481.875 492.6875,481.6563 C492.7969,481.5 492.8281,481.3125 492.8281,480.8906 L492.8281,479.4688 C492.8281,479.0313 492.8125,478.9063 492.7188,478.75 C492.5625,478.4844 492.2813,478.3438 491.9844,478.3438 C491.6875,478.3438 491.4844,478.4375 491.2656,478.75 L491.0938,478.6719 Z " fill="#000000"/><text fill="#000000" font-family="sans-serif" font-size="14" lengthAdjust="spacing" textLength="37" x="509.25" y="487.8467">Book</text><line style="stroke:#181818;stroke-width:0.5;" x1="427" x2="596" y1="499" y2="499"/><rect fill="none" height="6" style="stroke:#C82930;stroke-width:1.0;" width="6" x="434" y="509.6484"/><text fill="#000000" font-family="sans-serif" font-size="14" lengthAdjust="spacing" textLength="145" x="446" y="515.9951">bestSeller : Boolean</text><line style="stroke:#181818;stroke-width:0.5;" x1="427" x2="596" y1="523.2969" y2="523.2969"/></g><!--MD5=[17df676861e23d677eee5fbbf19dd51d]
class AudioVideoMaterial--><g id="elem_AudioVideoMaterial"><rect codeLine="78" fill="#F1F1F1" height="48" id="AudioVideoMaterial" rx="2.5" ry="2.5" style="stroke:#181818;stroke-width:0.5;" width="171" x="220" y="475"/><ellipse cx="235" cy="491" fill="#ADD1B2" rx="11" ry="11" style="stroke:#181818;stroke-width:1.0;"/><path d="M237.3438,486.6719 C236.4063,486.2344 235.8125,486.0938 234.9375,486.0938 C232.3125,486.0938 230.3125,488.1719 230.3125,490.8906 L230.3125,492.0156 C230.3125,494.5938 232.4219,496.4844 235.3125,496.4844 C236.5313,496.4844 237.6875,496.1875 238.4375,495.6406 C239.0156,495.2344 239.3438,494.7813 239.3438,494.3906 C239.3438,493.9375 238.9531,493.5469 238.4844,493.5469 C238.2656,493.5469 238.0625,493.625 237.875,493.8125 C237.4219,494.2969 237.4219,494.2969 237.2344,494.3906 C236.8125,494.6563 236.125,494.7813 235.3594,494.7813 C233.3125,494.7813 232.0156,493.6875 232.0156,491.9844 L232.0156,490.8906 C232.0156,489.1094 233.2656,487.7969 235,487.7969 C235.5781,487.7969 236.1875,487.9531 236.6563,488.2031 C237.1406,488.4844 237.3125,488.7031 237.4063,489.1094 C237.4688,489.5156 237.5,489.6406 237.6406,489.7656 C237.7813,489.9063 238.0156,490.0156 238.2344,490.0156 C238.5,490.0156 238.7656,489.875 238.9375,489.6563 C239.0469,489.5 239.0781,489.3125 239.0781,488.8906 L239.0781,487.4688 C239.0781,487.0313 239.0625,486.9063 238.9688,486.75 C238.8125,486.4844 238.5313,486.3438 238.2344,486.3438 C237.9375,486.3438 237.7344,486.4375 237.5156,486.75 L237.3438,486.6719 Z " fill="#000000"/><text fill="#000000" font-family="sans-serif" font-size="14" lengthAdjust="spacing" textLength="139" x="249" y="495.8467">AudioVideoMaterial</text><line style="stroke:#181818;stroke-width:0.5;" x1="221" x2="390" y1="507" y2="507"/><line style="stroke:#181818;stroke-width:0.5;" x1="221" x2="390" y1="515" y2="515"/></g><g id="elem_Money"><rect fill="#F1F1F1" height="50.2656" style="stroke:#181818;stroke-width:0.5;" width="61" x="1409" y="95.5"/><text fill="#000000" font-family="sans-serif" font-size="12" font-style="italic" lengthAdjust="spacing" textLength="49" x="1415" y="106.6387">«Utility»</text><text fill="#000000" font-family="sans-serif" font-size="14" lengthAdjust="spacing" textLength="47" x="1416" y="124.4639">Money</text><line style="stroke:#181818;stroke-width:0.5;" x1="1410" x2="1469" y1="129.7656" y2="129.7656"/></g><g id="elem_Date"><rect fill="#F1F1F1" height="50.2656" style="stroke:#181818;stroke-width:0.5;" width="59" x="1505" y="95.5"/><text fill="#000000" font-family="sans-serif" font-size="12" font-style="italic" lengthAdjust="spacing" textLength="49" x="1510" y="106.6387">«Utility»</text><text fill="#000000" font-family="sans-serif" font-size="14" lengthAdjust="spacing" textLength="35" x="1517" y="124.4639">Date</text><line style="stroke:#181818;stroke-width:0.5;" x1="1506" x2="1563" y1="129.7656" y2="129.7656"/></g><g id="elem_OperatingSystem"><rect fill="#F1F1F1" height="58.5625" style="stroke:#181818;stroke-width:0.5;" width="141" x="1409" y="321"/><text fill="#000000" font-family="sans-serif" font-size="12" font-style="italic" lengthAdjust="spacing" textLength="49" x="1455" y="332.1387">«Utility»</text><text fill="#000000" font-family="sans-serif" font-size="14" lengthAdjust="spacing" textLength="127" x="1416" y="349.9639">OperatingSystem</text><line style="stroke:#181818;stroke-width:0.5;" x1="1410" x2="1549" y1="355.2656" y2="355.2656"/><text fill="#000000" font-family="sans-serif" font-size="14" lengthAdjust="spacing" textLength="118" x="1415" y="372.2607">getDate() : Date</text></g><!--MD5=[1e82a369e595a9e02d89f631976cff57]
class PersistenceInterface--><g id="elem_PersistenceInterface"><rect codeLine="14" fill="#F1F1F1" height="80.5938" id="PersistenceInterface" rx="2.5" ry="2.5" style="stroke:#181818;stroke-width:0.5;" width="182" x="1015.5" y="80"/><ellipse cx="1030.5" cy="96" fill="#ADD1B2" rx="11" ry="11" style="stroke:#181818;stroke-width:1.0;"/><path d="M1032.8438,91.6719 C1031.9063,91.2344 1031.3125,91.0938 1030.4375,91.0938 C1027.8125,91.0938 1025.8125,93.1719 1025.8125,95.8906 L1025.8125,97.0156 C1025.8125,99.5938 1027.9219,101.4844 1030.8125,101.4844 C1032.0313,101.4844 1033.1875,101.1875 1033.9375,100.6406 C1034.5156,100.2344 1034.8438,99.7813 1034.8438,99.3906 C1034.8438,98.9375 1034.4531,98.5469 1033.9844,98.5469 C1033.7656,98.5469 1033.5625,98.625 1033.375,98.8125 C1032.9219,99.2969 1032.9219,99.2969 1032.7344,99.3906 C1032.3125,99.6563 1031.625,99.7813 1030.8594,99.7813 C1028.8125,99.7813 1027.5156,98.6875 1027.5156,96.9844 L1027.5156,95.8906 C1027.5156,94.1094 1028.7656,92.7969 1030.5,92.7969 C1031.0781,92.7969 1031.6875,92.9531 1032.1563,93.2031 C1032.6406,93.4844 1032.8125,93.7031 1032.9063,94.1094 C1032.9688,94.5156 1033,94.6406 1033.1406,94.7656 C1033.2813,94.9063 1033.5156,95.0156 1033.7344,95.0156 C1034,95.0156 1034.2656,94.875 1034.4375,94.6563 C1034.5469,94.5 1034.5781,94.3125 1034.5781,93.8906 L1034.5781,92.4688 C1034.5781,92.0313 1034.5625,91.9063 1034.4688,91.75 C1034.3125,91.4844 1034.0313,91.3438 1033.7344,91.3438 C1033.4375,91.3438 1033.2344,91.4375 1033.0156,91.75 L1032.8438,91.6719 Z " fill="#000000"/><text fill="#000000" font-family="sans-serif" font-size="14" lengthAdjust="spacing" textLength="150" x="1044.5" y="100.8467">PersistenceInterface</text><line style="stroke:#181818;stroke-width:0.5;" x1="1016.5" x2="1196.5" y1="112" y2="112"/><line style="stroke:#181818;stroke-width:0.5;" x1="1016.5" x2="1196.5" y1="120" y2="120"/><ellipse cx="1026.5" cy="133.6484" fill="#84BE84" rx="3" ry="3" style="stroke:#038048;stroke-width:1.0;"/><text fill="#000000" font-family="sans-serif" font-size="14" lengthAdjust="spacing" textLength="40" x="1035.5" y="136.9951">load()</text><ellipse cx="1026.5" cy="149.9453" fill="#84BE84" rx="3" ry="3" style="stroke:#038048;stroke-width:1.0;"/><text fill="#000000" font-family="sans-serif" font-size="14" lengthAdjust="spacing" textLength="42" x="1035.5" y="153.292">save()</text></g><!--MD5=[b7d14c67cd72b6b98c8da91058e12aa7]
class ModelInterface--><g id="elem_ModelInterface"><rect codeLine="20" fill="#F1F1F1" height="64.2969" id="ModelInterface" rx="2.5" ry="2.5" style="stroke:#181818;stroke-width:0.5;" width="141" x="1233" y="88.5"/><ellipse cx="1248" cy="104.5" fill="#ADD1B2" rx="11" ry="11" style="stroke:#181818;stroke-width:1.0;"/><path d="M1250.3438,100.1719 C1249.4063,99.7344 1248.8125,99.5938 1247.9375,99.5938 C1245.3125,99.5938 1243.3125,101.6719 1243.3125,104.3906 L1243.3125,105.5156 C1243.3125,108.0938 1245.4219,109.9844 1248.3125,109.9844 C1249.5313,109.9844 1250.6875,109.6875 1251.4375,109.1406 C1252.0156,108.7344 1252.3438,108.2813 1252.3438,107.8906 C1252.3438,107.4375 1251.9531,107.0469 1251.4844,107.0469 C1251.2656,107.0469 1251.0625,107.125 1250.875,107.3125 C1250.4219,107.7969 1250.4219,107.7969 1250.2344,107.8906 C1249.8125,108.1563 1249.125,108.2813 1248.3594,108.2813 C1246.3125,108.2813 1245.0156,107.1875 1245.0156,105.4844 L1245.0156,104.3906 C1245.0156,102.6094 1246.2656,101.2969 1248,101.2969 C1248.5781,101.2969 1249.1875,101.4531 1249.6563,101.7031 C1250.1406,101.9844 1250.3125,102.2031 1250.4063,102.6094 C1250.4688,103.0156 1250.5,103.1406 1250.6406,103.2656 C1250.7813,103.4063 1251.0156,103.5156 1251.2344,103.5156 C1251.5,103.5156 1251.7656,103.375 1251.9375,103.1563 C1252.0469,103 1252.0781,102.8125 1252.0781,102.3906 L1252.0781,100.9688 C1252.0781,100.5313 1252.0625,100.4063 1251.9688,100.25 C1251.8125,99.9844 1251.5313,99.8438 1251.2344,99.8438 C1250.9375,99.8438 1250.7344,99.9375 1250.5156,100.25 L1250.3438,100.1719 Z " fill="#000000"/><text fill="#000000" font-family="sans-serif" font-size="14" lengthAdjust="spacing" textLength="109" x="1262" y="109.3467">ModelInterface</text><line style="stroke:#181818;stroke-width:0.5;" x1="1234" x2="1373" y1="120.5" y2="120.5"/><ellipse cx="1244" cy="134.1484" fill="none" rx="3" ry="3" style="stroke:#038048;stroke-width:1.0;"/><text fill="#000000" font-family="sans-serif" font-size="14" lengthAdjust="spacing" textLength="30" x="1253" y="137.4951">TBD</text><line style="stroke:#181818;stroke-width:0.5;" x1="1234" x2="1373" y1="144.7969" y2="144.7969"/></g><!--MD5=[fb0932da17f9982e4848347a102654e2]
class Settings--><g id="elem_Settings"><rect codeLine="25" fill="#F1F1F1" height="64.2969" id="Settings" rx="2.5" ry="2.5" style="stroke:#181818;stroke-width:0.5;" width="118" x="1047.5" y="318.5"/><ellipse cx="1073.75" cy="334.5" fill="#ADD1B2" rx="11" ry="11" style="stroke:#181818;stroke-width:1.0;"/><path d="M1076.0938,330.1719 C1075.1563,329.7344 1074.5625,329.5938 1073.6875,329.5938 C1071.0625,329.5938 1069.0625,331.6719 1069.0625,334.3906 L1069.0625,335.5156 C1069.0625,338.0938 1071.1719,339.9844 1074.0625,339.9844 C1075.2813,339.9844 1076.4375,339.6875 1077.1875,339.1406 C1077.7656,338.7344 1078.0938,338.2813 1078.0938,337.8906 C1078.0938,337.4375 1077.7031,337.0469 1077.2344,337.0469 C1077.0156,337.0469 1076.8125,337.125 1076.625,337.3125 C1076.1719,337.7969 1076.1719,337.7969 1075.9844,337.8906 C1075.5625,338.1563 1074.875,338.2813 1074.1094,338.2813 C1072.0625,338.2813 1070.7656,337.1875 1070.7656,335.4844 L1070.7656,334.3906 C1070.7656,332.6094 1072.0156,331.2969 1073.75,331.2969 C1074.3281,331.2969 1074.9375,331.4531 1075.4063,331.7031 C1075.8906,331.9844 1076.0625,332.2031 1076.1563,332.6094 C1076.2188,333.0156 1076.25,333.1406 1076.3906,333.2656 C1076.5313,333.4063 1076.7656,333.5156 1076.9844,333.5156 C1077.25,333.5156 1077.5156,333.375 1077.6875,333.1563 C1077.7969,333 1077.8281,332.8125 1077.8281,332.3906 L1077.8281,330.9688 C1077.8281,330.5313 1077.8125,330.4063 1077.7188,330.25 C1077.5625,329.9844 1077.2813,329.8438 1076.9844,329.8438 C1076.6875,329.8438 1076.4844,329.9375 1076.2656,330.25 L1076.0938,330.1719 Z " fill="#000000"/><text fill="#000000" font-family="sans-serif" font-size="14" lengthAdjust="spacing" textLength="61" x="1090.25" y="339.3467">Settings</text><line style="stroke:#181818;stroke-width:0.5;" x1="1048.5" x2="1164.5" y1="350.5" y2="350.5"/><ellipse cx="1058.5" cy="364.1484" fill="none" rx="3" ry="3" style="stroke:#038048;stroke-width:1.0;"/><text fill="#000000" font-family="sans-serif" font-size="14" lengthAdjust="spacing" textLength="92" x="1067.5" y="367.4951">TBD_DB_URL</text><line style="stroke:#181818;stroke-width:0.5;" x1="1048.5" x2="1164.5" y1="374.7969" y2="374.7969"/></g><!--MD5=[341a0cf90b207ac5091f779c51e7b171]
class Patron--><g id="elem_Patron"><rect codeLine="30" fill="#F1F1F1" height="227.2656" id="Patron" rx="2.5" ry="2.5" style="stroke:#181818;stroke-width:0.5;" width="281" x="377" y="7"/><ellipse cx="489.25" cy="23" fill="#ADD1B2" rx="11" ry="11" style="stroke:#181818;stroke-width:1.0;"/><path d="M491.5938,18.6719 C490.6563,18.2344 490.0625,18.0938 489.1875,18.0938 C486.5625,18.0938 484.5625,20.1719 484.5625,22.8906 L484.5625,24.0156 C484.5625,26.5938 486.6719,28.4844 489.5625,28.4844 C490.7813,28.4844 491.9375,28.1875 492.6875,27.6406 C493.2656,27.2344 493.5938,26.7813 493.5938,26.3906 C493.5938,25.9375 493.2031,25.5469 492.7344,25.5469 C492.5156,25.5469 492.3125,25.625 492.125,25.8125 C491.6719,26.2969 491.6719,26.2969 491.4844,26.3906 C491.0625,26.6563 490.375,26.7813 489.6094,26.7813 C487.5625,26.7813 486.2656,25.6875 486.2656,23.9844 L486.2656,22.8906 C486.2656,21.1094 487.5156,19.7969 489.25,19.7969 C489.8281,19.7969 490.4375,19.9531 490.9063,20.2031 C491.3906,20.4844 491.5625,20.7031 491.6563,21.1094 C491.7188,21.5156 491.75,21.6406 491.8906,21.7656 C492.0313,21.9063 492.2656,22.0156 492.4844,22.0156 C492.75,22.0156 493.0156,21.875 493.1875,21.6563 C493.2969,21.5 493.3281,21.3125 493.3281,20.8906 L493.3281,19.4688 C493.3281,19.0313 493.3125,18.9063 493.2188,18.75 C493.0625,18.4844 492.7813,18.3438 492.4844,18.3438 C492.1875,18.3438 491.9844,18.4375 491.7656,18.75 L491.5938,18.6719 Z " fill="#000000"/><text fill="#000000" font-family="sans-serif" font-size="14" lengthAdjust="spacing" textLength="48" x="509.75" y="27.8467">Patron</text><line style="stroke:#181818;stroke-width:0.5;" x1="378" x2="657" y1="39" y2="39"/><rect fill="none" height="6" style="stroke:#C82930;stroke-width:1.0;" width="6" x="385" y="49.6484"/><text fill="#000000" font-family="sans-serif" font-size="14" lengthAdjust="spacing" textLength="97" x="397" y="55.9951">name : String</text><rect fill="none" height="6" style="stroke:#C82930;stroke-width:1.0;" width="6" x="385" y="65.9453"/><text fill="#000000" font-family="sans-serif" font-size="14" lengthAdjust="spacing" textLength="112" x="397" y="72.292">address : String</text><rect fill="none" height="6" style="stroke:#C82930;stroke-width:1.0;" width="6" x="385" y="82.2422"/><text fill="#000000" font-family="sans-serif" font-size="14" lengthAdjust="spacing" textLength="160" x="397" y="88.5889">phoneNumber : String</text><rect fill="none" height="6" style="stroke:#C82930;stroke-width:1.0;" width="6" x="385" y="98.5391"/><text fill="#000000" font-family="sans-serif" font-size="14" lengthAdjust="spacing" textLength="193" x="397" y="104.8857">libraryCardNumber : String</text><rect fill="none" height="6" style="stroke:#C82930;stroke-width:1.0;" width="6" x="385" y="114.8359"/><text fill="#000000" font-family="sans-serif" font-size="14" lengthAdjust="spacing" textLength="119" x="397" y="121.1826">birthDate : Date</text><rect fill="none" height="6" style="stroke:#C82930;stroke-width:1.0;" width="6" x="385" y="131.1328"/><text fill="#000000" font-family="sans-serif" font-size="14" lengthAdjust="spacing" textLength="97" x="397" y="137.4795">/age : Integer</text><line style="stroke:#181818;stroke-width:0.5;" x1="378" x2="657" y1="144.7813" y2="144.7813"/><ellipse cx="388" cy="158.4297" fill="#84BE84" rx="3" ry="3" style="stroke:#038048;stroke-width:1.0;"/><text fill="#000000" font-family="sans-serif" font-size="14" lengthAdjust="spacing" textLength="206" x="397" y="161.7764">itemsCheckedOut() : Integer</text><ellipse cx="388" cy="174.7266" fill="#84BE84" rx="3" ry="3" style="stroke:#038048;stroke-width:1.0;"/><text fill="#000000" font-family="sans-serif" font-size="14" lengthAdjust="spacing" textLength="157" x="397" y="178.0732">whenDue(Title) : Date</text><ellipse cx="388" cy="191.0234" fill="#84BE84" rx="3" ry="3" style="stroke:#038048;stroke-width:1.0;"/><text fill="#000000" font-family="sans-serif" font-size="14" lengthAdjust="spacing" textLength="255" x="397" y="194.3701">outstandingOverDueFines() : Money</text><ellipse cx="388" cy="207.3203" fill="#84BE84" rx="3" ry="3" style="stroke:#038048;stroke-width:1.0;"/><text fill="#000000" font-family="sans-serif" font-size="14" lengthAdjust="spacing" textLength="112" x="397" y="210.667">checkOut(Title)</text><ellipse cx="388" cy="223.6172" fill="#84BE84" rx="3" ry="3" style="stroke:#038048;stroke-width:1.0;"/><text fill="#000000" font-family="sans-serif" font-size="14" lengthAdjust="spacing" textLength="98" x="397" y="226.9639">request(Title)</text></g><!--MD5=[db50d0f3a43ddfb405dc6a6e341f1d1f]
class CheckedOut--><g id="elem_CheckedOut"><rect codeLine="43" fill="#F1F1F1" height="113.1875" id="CheckedOut" rx="2.5" ry="2.5" style="stroke:#181818;stroke-width:0.5;" width="277" x="7" y="294"/><ellipse cx="96.75" cy="310" fill="#ADD1B2" rx="11" ry="11" style="stroke:#181818;stroke-width:1.0;"/><path d="M99.0938,305.6719 C98.1563,305.2344 97.5625,305.0938 96.6875,305.0938 C94.0625,305.0938 92.0625,307.1719 92.0625,309.8906 L92.0625,311.0156 C92.0625,313.5938 94.1719,315.4844 97.0625,315.4844 C98.2813,315.4844 99.4375,315.1875 100.1875,314.6406 C100.7656,314.2344 101.0938,313.7813 101.0938,313.3906 C101.0938,312.9375 100.7031,312.5469 100.2344,312.5469 C100.0156,312.5469 99.8125,312.625 99.625,312.8125 C99.1719,313.2969 99.1719,313.2969 98.9844,313.3906 C98.5625,313.6563 97.875,313.7813 97.1094,313.7813 C95.0625,313.7813 93.7656,312.6875 93.7656,310.9844 L93.7656,309.8906 C93.7656,308.1094 95.0156,306.7969 96.75,306.7969 C97.3281,306.7969 97.9375,306.9531 98.4063,307.2031 C98.8906,307.4844 99.0625,307.7031 99.1563,308.1094 C99.2188,308.5156 99.25,308.6406 99.3906,308.7656 C99.5313,308.9063 99.7656,309.0156 99.9844,309.0156 C100.25,309.0156 100.5156,308.875 100.6875,308.6563 C100.7969,308.5 100.8281,308.3125 100.8281,307.8906 L100.8281,306.4688 C100.8281,306.0313 100.8125,305.9063 100.7188,305.75 C100.5625,305.4844 100.2813,305.3438 99.9844,305.3438 C99.6875,305.3438 99.4844,305.4375 99.2656,305.75 L99.0938,305.6719 Z " fill="#000000"/><text fill="#000000" font-family="sans-serif" font-size="14" lengthAdjust="spacing" textLength="89" x="117.25" y="314.8467">CheckedOut</text><line style="stroke:#181818;stroke-width:0.5;" x1="8" x2="283" y1="326" y2="326"/><rect fill="none" height="6" style="stroke:#C82930;stroke-width:1.0;" width="6" x="15" y="336.6484"/><text fill="#000000" font-family="sans-serif" font-size="14" lengthAdjust="spacing" textLength="251" x="27" y="342.9951">hasBeenRenewed : Boolean = false</text><rect fill="none" height="6" style="stroke:#C82930;stroke-width:1.0;" width="6" x="15" y="352.9453"/><text fill="#000000" font-family="sans-serif" font-size="14" lengthAdjust="spacing" textLength="109" x="27" y="359.292">dueDate : Date</text><rect fill="none" height="6" style="stroke:#C82930;stroke-width:1.0;" width="6" x="15" y="369.2422"/><text fill="#000000" font-family="sans-serif" font-size="14" lengthAdjust="spacing" textLength="93" x="27" y="375.5889">/fine : Money</text><rect fill="none" height="6" style="stroke:#C82930;stroke-width:1.0;" width="6" x="15" y="385.5391"/><text fill="#000000" font-family="sans-serif" font-size="14" lengthAdjust="spacing" textLength="181" x="27" y="391.8857">whenReturned : Date = 0</text><line style="stroke:#181818;stroke-width:0.5;" x1="8" x2="283" y1="399.1875" y2="399.1875"/></g><!--MD5=[90111e5cdc788a7ef73a3273c23dcc2b]
class Title--><g id="elem_Title"><rect codeLine="49" fill="#F1F1F1" height="96.8906" id="Title" rx="2.5" ry="2.5" style="stroke:#181818;stroke-width:0.5;" width="130" x="573.5" y="302"/><ellipse cx="617.75" cy="318" fill="#ADD1B2" rx="11" ry="11" style="stroke:#181818;stroke-width:1.0;"/><path d="M620.0938,313.6719 C619.1563,313.2344 618.5625,313.0938 617.6875,313.0938 C615.0625,313.0938 613.0625,315.1719 613.0625,317.8906 L613.0625,319.0156 C613.0625,321.5938 615.1719,323.4844 618.0625,323.4844 C619.2813,323.4844 620.4375,323.1875 621.1875,322.6406 C621.7656,322.2344 622.0938,321.7813 622.0938,321.3906 C622.0938,320.9375 621.7031,320.5469 621.2344,320.5469 C621.0156,320.5469 620.8125,320.625 620.625,320.8125 C620.1719,321.2969 620.1719,321.2969 619.9844,321.3906 C619.5625,321.6563 618.875,321.7813 618.1094,321.7813 C616.0625,321.7813 614.7656,320.6875 614.7656,318.9844 L614.7656,317.8906 C614.7656,316.1094 616.0156,314.7969 617.75,314.7969 C618.3281,314.7969 618.9375,314.9531 619.4063,315.2031 C619.8906,315.4844 620.0625,315.7031 620.1563,316.1094 C620.2188,316.5156 620.25,316.6406 620.3906,316.7656 C620.5313,316.9063 620.7656,317.0156 620.9844,317.0156 C621.25,317.0156 621.5156,316.875 621.6875,316.6563 C621.7969,316.5 621.8281,316.3125 621.8281,315.8906 L621.8281,314.4688 C621.8281,314.0313 621.8125,313.9063 621.7188,313.75 C621.5625,313.4844 621.2813,313.3438 620.9844,313.3438 C620.6875,313.3438 620.4844,313.4375 620.2656,313.75 L620.0938,313.6719 Z " fill="#000000"/><text fill="#000000" font-family="sans-serif" font-size="14" lengthAdjust="spacing" textLength="33" x="638.25" y="322.8467">Title</text><line style="stroke:#181818;stroke-width:0.5;" x1="574.5" x2="702.5" y1="334" y2="334"/><rect fill="none" height="6" style="stroke:#C82930;stroke-width:1.0;" width="6" x="581.5" y="344.6484"/><text fill="#000000" font-family="sans-serif" font-size="14" lengthAdjust="spacing" textLength="97" x="593.5" y="350.9951">name : String</text><rect fill="none" height="6" style="stroke:#C82930;stroke-width:1.0;" width="6" x="581.5" y="360.9453"/><text fill="#000000" font-family="sans-serif" font-size="14" lengthAdjust="spacing" textLength="104" x="593.5" y="367.292">author : String</text><rect fill="none" height="6" style="stroke:#C82930;stroke-width:1.0;" width="6" x="581.5" y="377.2422"/><text fill="#000000" font-family="sans-serif" font-size="14" lengthAdjust="spacing" textLength="90" x="593.5" y="383.5889">ISBN : String</text><line style="stroke:#181818;stroke-width:0.5;" x1="574.5" x2="702.5" y1="390.8906" y2="390.8906"/></g><!--MD5=[f64d2912628da08ce415e1d1ae830f42]
class LoanableItem--><g id="elem_LoanableItem"><rect codeLine="70" fill="#F1F1F1" height="96.8906" id="LoanableItem" rx="2.5" ry="2.5" style="stroke:#181818;stroke-width:0.5;" width="219" x="319" y="302"/><ellipse cx="374.75" cy="318" fill="#ADD1B2" rx="11" ry="11" style="stroke:#181818;stroke-width:1.0;"/><path d="M377.0938,313.6719 C376.1563,313.2344 375.5625,313.0938 374.6875,313.0938 C372.0625,313.0938 370.0625,315.1719 370.0625,317.8906 L370.0625,319.0156 C370.0625,321.5938 372.1719,323.4844 375.0625,323.4844 C376.2813,323.4844 377.4375,323.1875 378.1875,322.6406 C378.7656,322.2344 379.0938,321.7813 379.0938,321.3906 C379.0938,320.9375 378.7031,320.5469 378.2344,320.5469 C378.0156,320.5469 377.8125,320.625 377.625,320.8125 C377.1719,321.2969 377.1719,321.2969 376.9844,321.3906 C376.5625,321.6563 375.875,321.7813 375.1094,321.7813 C373.0625,321.7813 371.7656,320.6875 371.7656,318.9844 L371.7656,317.8906 C371.7656,316.1094 373.0156,314.7969 374.75,314.7969 C375.3281,314.7969 375.9375,314.9531 376.4063,315.2031 C376.8906,315.4844 377.0625,315.7031 377.1563,316.1094 C377.2188,316.5156 377.25,316.6406 377.3906,316.7656 C377.5313,316.9063 377.7656,317.0156 377.9844,317.0156 C378.25,317.0156 378.5156,316.875 378.6875,316.6563 C378.7969,316.5 378.8281,316.3125 378.8281,315.8906 L378.8281,314.4688 C378.8281,314.0313 378.8125,313.9063 378.7188,313.75 C378.5625,313.4844 378.2813,313.3438 377.9844,313.3438 C377.6875,313.3438 377.4844,313.4375 377.2656,313.75 L377.0938,313.6719 Z " fill="#000000"/><text fill="#000000" font-family="sans-serif" font-size="14" lengthAdjust="spacing" textLength="99" x="395.25" y="322.8467">LoanableItem</text><line style="stroke:#181818;stroke-width:0.5;" x1="320" x2="537" y1="334" y2="334"/><rect fill="none" height="6" style="stroke:#C82930;stroke-width:1.0;" width="6" x="327" y="344.6484"/><text fill="#000000" font-family="sans-serif" font-size="14" lengthAdjust="spacing" textLength="193" x="339" y="350.9951">perDayFine : Money = 0.10</text><rect fill="none" height="6" style="stroke:#C82930;stroke-width:1.0;" width="6" x="327" y="360.9453"/><text fill="#000000" font-family="sans-serif" font-size="14" lengthAdjust="spacing" textLength="161" x="339" y="367.292">checkoutPeriod : Date</text><rect fill="none" height="6" style="stroke:#C82930;stroke-width:1.0;" width="6" x="327" y="377.2422"/><text fill="#000000" font-family="sans-serif" font-size="14" lengthAdjust="spacing" textLength="97" x="339" y="383.5889">value : Money</text><line style="stroke:#181818;stroke-width:0.5;" x1="320" x2="537" y1="390.8906" y2="390.8906"/></g><ellipse cx="339.5" cy="120.5" fill="#181818" rx="2" ry="2" style="stroke:#181818;stroke-width:1.0;"/><!--MD5=[44a1b4afaef76c16e6c9ec4990ad0c8d]
class Item--><g id="elem_Item"><rect codeLine="60" fill="#F1F1F1" height="48" id="Item" rx="2.5" ry="2.5" style="stroke:#181818;stroke-width:0.5;" width="66" x="693.5" y="96.5"/><ellipse cx="708.5" cy="112.5" fill="#ADD1B2" rx="11" ry="11" style="stroke:#181818;stroke-width:1.0;"/><path d="M710.8438,108.1719 C709.9063,107.7344 709.3125,107.5938 708.4375,107.5938 C705.8125,107.5938 703.8125,109.6719 703.8125,112.3906 L703.8125,113.5156 C703.8125,116.0938 705.9219,117.9844 708.8125,117.9844 C710.0313,117.9844 711.1875,117.6875 711.9375,117.1406 C712.5156,116.7344 712.8438,116.2813 712.8438,115.8906 C712.8438,115.4375 712.4531,115.0469 711.9844,115.0469 C711.7656,115.0469 711.5625,115.125 711.375,115.3125 C710.9219,115.7969 710.9219,115.7969 710.7344,115.8906 C710.3125,116.1563 709.625,116.2813 708.8594,116.2813 C706.8125,116.2813 705.5156,115.1875 705.5156,113.4844 L705.5156,112.3906 C705.5156,110.6094 706.7656,109.2969 708.5,109.2969 C709.0781,109.2969 709.6875,109.4531 710.1563,109.7031 C710.6406,109.9844 710.8125,110.2031 710.9063,110.6094 C710.9688,111.0156 711,111.1406 711.1406,111.2656 C711.2813,111.4063 711.5156,111.5156 711.7344,111.5156 C712,111.5156 712.2656,111.375 712.4375,111.1563 C712.5469,111 712.5781,110.8125 712.5781,110.3906 L712.5781,108.9688 C712.5781,108.5313 712.5625,108.4063 712.4688,108.25 C712.3125,107.9844 712.0313,107.8438 711.7344,107.8438 C711.4375,107.8438 711.2344,107.9375 711.0156,108.25 L710.8438,108.1719 Z " fill="#000000"/><text fill="#000000" font-family="sans-serif" font-size="14" lengthAdjust="spacing" textLength="34" x="722.5" y="117.3467">Item</text><line style="stroke:#181818;stroke-width:0.5;" x1="694.5" x2="758.5" y1="128.5" y2="128.5"/><line style="stroke:#181818;stroke-width:0.5;" x1="694.5" x2="758.5" y1="136.5" y2="136.5"/></g><!--MD5=[f501496d70f901243ce3f2122996adbe]
link Patron to Title--><g id="link_Patron_Title"><path codeLine="56" d="M615.75,234.152 C615.75,258.032 615.75,281.99 615.75,301.905 " fill="none" id="Patron-Title" style="stroke:#181818;stroke-width:1.0;"/><text fill="#000000" font-family="sans-serif" font-size="13" lengthAdjust="spacing" textLength="56" x="558.75" y="264.0959">requests</text><text fill="#000000" font-family="sans-serif" font-size="13" lengthAdjust="spacing" textLength="8" x="614.0824" y="254.3543">1</text><text fill="#000000" font-family="sans-serif" font-size="13" lengthAdjust="spacing" textLength="23" x="587.9336" y="291.1006">0..*</text></g><!--MD5=[412337482322ae9501866a173e4052c4]
link Patron to apoint11--><g id="link_Patron_apoint11"><path d="M376.815,121 C359.758,121 346.577,121 341.627,121 " fill="none" id="Patron-apoint11" style="stroke:#181818;stroke-width:1.0;"/><text fill="#000000" font-family="sans-serif" font-size="13" lengthAdjust="spacing" textLength="8" x="360.9025" y="117.6805">1</text></g><!--MD5=[bf36ad73df9748dc8ac87f86e127fc41]
link apoint11 to LoanableItem--><g id="link_apoint11_LoanableItem"><path d="M339.5,122.776 C339.5,139.152 339.5,240.099 339.5,301.967 " fill="none" id="apoint11-LoanableItem" style="stroke:#181818;stroke-width:1.0;"/><text fill="#000000" font-family="sans-serif" font-size="13" lengthAdjust="spacing" textLength="23" x="301.7391" y="290.8218">0..*</text></g><!--MD5=[22804c86e03ff6f08e05154cc06b6eba]
link apoint11 to CheckedOut--><g id="link_apoint11_CheckedOut"><path d="M337.321,121 C316.008,121 145.5,121 145.5,121 C145.5,121 145.5,225.808 145.5,293.77 " fill="none" id="apoint11-CheckedOut" style="stroke:#181818;stroke-width:1.0;stroke-dasharray:7.0,7.0;"/></g><!--MD5=[a8b337a239a3152a6b774b689337ff4e]
link Item to Title--><g id="link_Item_Title"><path codeLine="61" d="M700.167,144.679 C700.167,144.679 700.167,288.848 700.167,288.848 " fill="none" id="Item-to-Title" style="stroke:#181818;stroke-width:1.0;"/><polygon fill="none" points="700.167,301.848,704.167,295.848,700.167,289.848,696.167,295.848,700.167,301.848" style="stroke:#181818;stroke-width:1.0;"/><text fill="#000000" font-family="sans-serif" font-size="13" lengthAdjust="spacing" textLength="7" x="685.8952" y="164.4838">*</text><text fill="#000000" font-family="sans-serif" font-size="13" lengthAdjust="spacing" textLength="8" x="700.2764" y="291.0355">1</text></g><!--MD5=[e45aca1029a45564db47a18dec2440f0]
reverse link Item to NonLoanableItem--><g id="link_Item_NonLoanableItem"><path d="M749.25,164.679 C749.25,164.679 749.25,326.3 749.25,326.3 " fill="none" id="Item-backto-NonLoanableItem" style="stroke:#181818;stroke-width:1.0;stroke-dasharray:7.0,7.0;"/><polygon fill="none" points="742.25,164.679,749.25,144.679,756.25,164.679,742.25,164.679" style="stroke:#181818;stroke-width:1.0;"/></g><!--MD5=[65f88b17cf0f604ee7c10243b0ffb3b2]
reverse link NonLoanableItem to ReferenceBook--><g id="link_NonLoanableItem_ReferenceBook"><path d="M809.75,394.69 C809.75,394.69 809.75,474.8208 809.75,474.8208 " fill="none" id="NonLoanableItem-backto-ReferenceBook" style="stroke:#181818;stroke-width:1.0;stroke-dasharray:7.0,7.0;"/><polygon fill="none" points="802.75,394.69,809.75,374.69,816.75,394.69,802.75,394.69" style="stroke:#181818;stroke-width:1.0;"/></g><!--MD5=[325cdd15f663ed925715235390fa5d5b]
reverse link NonLoanableItem to Magazine--><g id="link_NonLoanableItem_Magazine"><path d="M889.25,394.69 C889.25,394.69 889.25,499 889.25,499 C889.25,499 901.355,499 915.919,499 " fill="none" id="NonLoanableItem-backto-Magazine" style="stroke:#181818;stroke-width:1.0;stroke-dasharray:7.0,7.0;"/><polygon fill="none" points="882.25,394.69,889.25,374.69,896.25,394.69,882.25,394.69" style="stroke:#181818;stroke-width:1.0;"/></g><!--MD5=[ee5781a6cb809406d927f1cd95f81ed2]
reverse link Item to LoanableItem--><g id="link_Item_LoanableItem"><path d="M696.833,164.519 C696.833,164.519 696.833,264 696.833,264 C696.833,264 457.5,264 457.5,264 C457.5,264 457.5,282.223 457.5,301.94 " fill="none" id="Item-backto-LoanableItem" style="stroke:#181818;stroke-width:1.0;stroke-dasharray:7.0,7.0;"/><polygon fill="none" points="689.833,164.519,696.833,144.519,703.833,164.519,689.833,164.519" style="stroke:#181818;stroke-width:1.0;"/></g><!--MD5=[17f6e8f068121f3cc20c5dd6b504ba2c]
reverse link LoanableItem to Book--><g id="link_LoanableItem_Book"><path d="M482,419.124 C482,419.124 482,466.669 482,466.669 " fill="none" id="LoanableItem-backto-Book" style="stroke:#181818;stroke-width:1.0;stroke-dasharray:7.0,7.0;"/><polygon fill="none" points="475,419.124,482,399.124,489,419.124,475,419.124" style="stroke:#181818;stroke-width:1.0;"/></g><!--MD5=[52d6f56e7b7b096a9926d87dccadb672]
reverse link LoanableItem to AudioVideoMaterial--><g id="link_LoanableItem_AudioVideoMaterial"><path d="M355,419.124 C355,419.124 355,474.8622 355,474.8622 " fill="none" id="LoanableItem-backto-AudioVideoMaterial" style="stroke:#181818;stroke-width:1.0;stroke-dasharray:7.0,7.0;"/><polygon fill="none" points="348,419.124,355,399.124,362,419.124,348,419.124" style="stroke:#181818;stroke-width:1.0;"/></g><!--MD5=[02ab2ea43e1f519fe85968d25028481d]
@startuml
skinparam linetype ortho
skinparam shadowing false
' skinparam monochrome true

' skinparam ranksep 20
' skinparam dpi 150
' skinparam arrowThickness 0.7
' skinparam packageTitleAlignment left
' skinparam usecaseBorderThickness 0.4
' skinparam defaultFontSize 12
' skinparam rectangleBorderThickness 1

' How should this work? Basically just Flask-SQLAlchemy?
class PersistenceInterface {
+ load()
+ save()
}

' Is this the SQLAlchemy model?
class ModelInterface {
+ TBD
}


class Settings {
+ TBD_DB_URL
}


class Patron {
- name : String
- address : String
- phoneNumber : String
- libraryCardNumber : String
- birthDate : Date
- /age : Integer
+ itemsCheckedOut() : Integer
+ whenDue(Title) : Date
+ outstandingOverDueFines() : Money
+ checkOut(Title)
+ request(Title)
}
class CheckedOut {
- hasBeenRenewed : Boolean = false
- dueDate : Date
- /fine : Money
- whenReturned : Date = 0
}
class Title {
- name : String
- author : String
- ISBN : String
}

' NOTE: I think this should be "1" Patron per any number of titles, not "*-*"
Patron "1" -down- "0..*" Title : requests
Patron "1" - "0..*" LoanableItem
(Patron, LoanableItem) . CheckedOut

class Item
Item "*" -down-o "1" Title

together {
class NonLoanableItem implements Item
class ReferenceBook implements NonLoanableItem
class Magazine implements NonLoanableItem
}

together {
class LoanableItem implements Item {
- perDayFine : Money = 0.10
- checkoutPeriod : Date
- value : Money
}
class Book implements LoanableItem {
- bestSeller : Boolean
}
class AudioVideoMaterial implements LoanableItem
}

together {
object Money <<Utility>>
object Date <<Utility>>
object OperatingSystem <<Utility>> {
getDate() : Date
}
}
@enduml

@startuml
skinparam linetype ortho
skinparam shadowing false


class PersistenceInterface {
+ load()
+ save()
}

class ModelInterface {
+ TBD
}


class Settings {
+ TBD_DB_URL
}


class Patron {
- name : String
- address : String
- phoneNumber : String
- libraryCardNumber : String
- birthDate : Date
- /age : Integer
+ itemsCheckedOut() : Integer
+ whenDue(Title) : Date
+ outstandingOverDueFines() : Money
+ checkOut(Title)
+ request(Title)
}
class CheckedOut {
- hasBeenRenewed : Boolean = false
- dueDate : Date
- /fine : Money
- whenReturned : Date = 0
}
class Title {
- name : String
- author : String
- ISBN : String
}

Patron "1" -down- "0..*" Title : requests
Patron "1" - "0..*" LoanableItem
(Patron, LoanableItem) . CheckedOut

class Item
Item "*" -down-o "1" Title

together {
class NonLoanableItem implements Item
class ReferenceBook implements NonLoanableItem
class Magazine implements NonLoanableItem
}

together {
class LoanableItem implements Item {
- perDayFine : Money = 0.10
- checkoutPeriod : Date
- value : Money
}
class Book implements LoanableItem {
- bestSeller : Boolean
}
class AudioVideoMaterial implements LoanableItem
}

together {
object Money <<Utility>>
object Date <<Utility>>
object OperatingSystem <<Utility>> {
getDate() : Date
}
}
@enduml

PlantUML version 1.2022.13beta1(Unknown compile time)
(GPL source distribution)
Java Runtime: Java(TM) SE Runtime Environment
JVM: Java HotSpot(TM) 64-Bit Server VM
Default Encoding: UTF-8
Language: en
Country: US
--></g></svg>